<svg width="192" height="192" viewBox="0 0 192 192" fill="none" xmlns="http://www.w3.org/2000/svg">
<path fill-rule="evenodd" clip-rule="evenodd" d="M123.974 92.8782C124.746 93.1177 125.41 93.2029 125.967 93.1337L129.049 93.7789C128.276 93.9246 128.136 94.4925 127.363 94.6962L126.16 94.3305L125.887 94.251C125.255 94.2499 124.769 94.1838 124.43 94.0521C124.227 93.977 124.077 93.8721 123.981 93.7375C123.825 93.5209 123.823 93.2347 123.974 92.8782Z" fill="#F49C84"/>
<path fill-rule="evenodd" clip-rule="evenodd" d="M123.311 84.6885C123.318 84.7432 123.331 84.801 123.348 84.8637L125.323 84.8904C126.7 84.7606 128.074 84.6785 128.7 84.4701L127.052 83.2856L125.584 83.8653C123.936 83.5664 123.177 83.8422 123.311 84.6885Z" fill="#F49C84"/>
<path fill-rule="evenodd" clip-rule="evenodd" d="M70.3043 86.77C70.2913 86.8236 70.2723 86.8797 70.2482 86.9398L68.4925 86.8543C67.1414 86.7611 65.3046 86.357 64.9424 85.9971L67.2231 85.2283L68.1373 85.6972C69.8089 85.5847 70.5317 85.944 70.3043 86.77Z" fill="#F49C84"/>
<path fill-rule="evenodd" clip-rule="evenodd" d="M68.5469 94.6273C67.7744 94.8667 67.1101 94.9518 66.5537 94.8827L63.4717 95.5278C64.2439 95.6735 64.3847 96.2414 65.157 96.4451L66.3607 96.0797L66.6337 96.0001C67.2656 95.999 67.7512 95.9329 68.0902 95.8015C68.2937 95.7262 68.4434 95.6212 68.5396 95.4868C68.6952 95.2701 68.6975 94.9836 68.5469 94.6273Z" fill="#F49C84"/>
<path d="M125.624 85.3524C123.14 85.1683 119.833 84.2648 119.16 81.4763C111.465 82.2458 103.778 82.9199 96.0477 83.1832C95.9325 83.1864 95.8749 83.1879 95.7597 83.1909C95.3159 83.7692 95.0938 84.0333 94.6495 84.5579C94.7414 84.5406 94.8338 84.5234 94.9272 84.5076C95.24 84.454 95.5617 84.4079 95.8834 84.3698C96.3346 84.3164 96.7941 84.2844 97.2502 84.2697C100.891 84.1517 106.193 85.7987 105.834 90.364C105.439 95.3822 99.6485 97.6342 95.3179 97.7014C91.2769 97.7639 85.9497 95.621 86.8991 90.659C87.4215 87.9286 89.772 86.0958 92.2815 85.2163C92.8664 84.4444 93.1593 84.0598 93.7445 83.2073C88.2019 83.2028 82.6695 83.0592 77.1322 82.8205C75.3428 84.9336 72.6588 85.9228 69.9954 86.5938C69.1499 89.6363 68.3002 92.6727 67.4053 95.7012C67.4095 95.7093 67.4136 95.715 67.4157 95.721C70.0088 95.9459 72.4011 97.4526 72.4732 100.278C87.9753 99.0471 103.59 98.6885 119.122 99.5804C120.082 96.6693 123.194 95.3543 125.996 94.9295C125.996 94.9276 125.996 94.9255 125.998 94.9236C125.276 91.7607 124.477 88.5319 125.624 85.3524ZM82.5477 90.9342C82.2373 92.5611 80.425 93.8044 78.5837 93.8454C76.7446 93.8863 75.6506 92.677 76.0116 91.0356C76.3657 89.4249 78.086 88.2759 79.8655 88.2693C81.6496 88.2627 82.853 89.3355 82.5477 90.9342ZM113.025 93.3856C111.133 93.4016 109.697 92.1839 109.77 90.5526C109.841 88.9536 111.38 87.7925 113.208 87.7283C115.043 87.6638 116.527 88.8062 116.521 90.4395C116.515 92.1016 114.921 93.3699 113.025 93.3856Z" fill="#8EC967"/>
<path d="M125.843 89.8098C125.741 86.2111 126.304 82.6605 127.172 79.0343C117.197 80.086 107.248 81.2828 97.2209 81.708C97.0607 81.7133 96.9804 81.7159 96.82 81.721C96.3963 82.345 96.1845 82.6358 95.7602 83.1905C95.8754 83.1875 95.933 83.186 96.0482 83.1828C103.779 82.9193 111.466 82.2452 119.16 81.4757C119.72 84.2102 122.285 85.3769 124.87 85.5352C123.788 88.8223 123.292 91.8386 125.368 94.9023C122.575 95.3023 119.985 96.7527 119.123 99.58C103.592 98.6881 87.9765 99.0467 72.4744 100.277C72.4332 99.5828 72.2979 98.9806 72.0658 98.4596C71.3898 96.9417 69.8681 96.0715 67.5816 95.7428C67.5293 95.7353 67.4781 95.7283 67.4254 95.7221C67.4233 95.7202 67.419 95.7204 67.4169 95.7204C67.4126 95.7206 67.4083 95.7187 67.4021 95.7189C67.4039 95.7114 67.4047 95.7078 67.4066 95.7005C67.4348 95.653 67.4606 95.6056 67.4888 95.5559C68.0985 93.9568 68.6813 92.374 69.1139 90.7649C69.4205 89.6246 69.6887 88.524 69.9184 87.4482C69.9583 87.1367 69.9835 86.8502 69.9963 86.5931C70.0302 86.5846 70.0665 86.5776 70.1 86.5692C70.1584 86.5552 70.219 86.5413 70.2777 86.5266C71.5649 86.2066 72.7942 85.81 73.8668 85.2907C75.1654 84.662 76.2766 83.8738 77.1331 82.8199C82.6704 83.0586 88.2028 83.2022 93.7454 83.2067C94.1186 82.6642 94.3052 82.3819 94.6779 81.7707C86.206 81.8292 77.7631 81.464 69.3128 80.8794C69.3113 80.92 69.3079 80.9607 69.304 81.001C68.9966 84.3275 68.4611 87.6304 67.5852 90.7627C66.4234 94.917 64.6111 99.1079 62.9275 103.192C62.9027 103.251 62.8763 103.315 62.8496 103.376C63.4401 103.296 63.7364 103.257 64.3314 103.182C64.3967 103.174 64.4291 103.17 64.4946 103.163C85.4427 100.64 107.424 99.6722 128.369 102.655C127.01 98.3879 125.965 94.1343 125.843 89.8098Z" fill="#1C834E"/>
<path d="M97.4755 91.4669C97.3332 92.8512 97.2622 93.4388 97.1201 94.579C98.6514 94.3832 99.5658 93.8223 99.7727 92.8226C99.7584 92.0623 98.9849 91.6529 97.4755 91.4669Z" fill="#1C834E"/>
<path d="M94.3088 87.4558C94.4788 87.6301 94.5637 87.7178 94.7337 87.8953C94.6748 88.4013 94.6454 88.6609 94.5867 89.2126C94.5867 89.2133 94.5867 89.2137 94.5867 89.2143C94.5761 89.2107 94.5654 89.209 94.5569 89.2054C94.4971 89.1877 94.4415 89.1697 94.3862 89.1501C94.3414 89.136 94.2981 89.119 94.2561 89.104C94.2456 89.1002 94.2369 89.0968 94.2283 89.0934C94.1882 89.0771 94.1471 89.0626 94.1089 89.0456C94.0604 89.024 94.0127 89.0031 93.9679 88.9801C93.9209 88.959 93.8783 88.9344 93.8375 88.9114C93.814 88.899 93.7906 88.8849 93.7692 88.8691C93.7522 88.8604 93.7372 88.848 93.7223 88.8376C93.705 88.8254 93.6903 88.815 93.6752 88.8043C93.6709 88.8007 93.6688 88.799 93.6666 88.7973C93.6453 88.7798 93.6261 88.7623 93.6069 88.745C93.5856 88.7275 93.5685 88.7083 93.5512 88.6891C93.5469 88.684 93.5405 88.6786 93.5363 88.6718C93.5192 88.6509 93.5021 88.6283 93.4893 88.6057C93.4744 88.5833 93.4616 88.5607 93.4531 88.5383C93.4509 88.5348 93.4509 88.5314 93.4509 88.5295C93.4467 88.5193 93.4403 88.5071 93.4381 88.495C93.4339 88.4828 93.4296 88.4709 93.4296 88.4589C93.4275 88.4572 93.4275 88.4538 93.4275 88.4504C93.4211 88.4263 93.4189 88.4022 93.4189 88.3766C93.4189 88.3254 93.4296 88.2724 93.4488 88.2163C93.4595 88.1892 93.4723 88.1622 93.4872 88.1334C93.5043 88.1046 93.5213 88.076 93.5427 88.0474C93.5555 88.0222 93.5704 87.997 93.5853 87.9719C93.628 87.9066 93.6816 87.8449 93.7477 87.7867C93.7626 87.775 93.7754 87.7634 93.7904 87.7517C93.7968 87.7451 93.8053 87.7402 93.8117 87.7351C93.8181 87.7284 93.8266 87.7218 93.8352 87.7169C93.8501 87.7054 93.865 87.6939 93.8821 87.6822C93.8992 87.6704 93.9162 87.6591 93.9333 87.6474C93.9354 87.6457 93.9378 87.6457 93.9397 87.644C93.9717 87.6226 94.006 87.6043 94.0402 87.5847C94.0444 87.583 94.0466 87.5798 94.0508 87.5781C94.0594 87.5731 94.07 87.5682 94.0786 87.5631C94.1127 87.5452 94.1492 87.5271 94.1874 87.5091C94.2253 87.4919 94.2659 87.4754 94.3088 87.4558Z" fill="#1C834E"/>
<path d="M96.4682 87.0411C96.3334 87.9802 96.2662 88.451 96.1314 89.5399C96.046 89.5264 95.9581 89.5126 95.8732 89.4979C95.8054 89.4861 95.7346 89.4729 95.6661 89.4597C95.6514 89.4578 95.6383 89.4539 95.6236 89.452C95.5765 89.443 95.5298 89.4358 95.485 89.4251C95.6113 88.7273 95.6744 88.4073 95.8007 87.7846C95.6403 87.5292 95.5598 87.4047 95.3994 87.1574C95.4378 87.1508 95.4743 87.1442 95.5125 87.1378C95.5788 87.1265 95.6469 87.1167 95.713 87.1073C95.7151 87.1073 95.7151 87.1073 95.7173 87.1073C95.9541 87.0759 96.2015 87.0539 96.449 87.0431C96.4556 87.0411 96.462 87.0411 96.4682 87.0411Z" fill="#1C834E"/>
<path d="M95.4285 94.6397C95.4583 94.6416 95.4882 94.6433 95.5181 94.6452C95.5315 94.5424 95.5386 94.4906 95.5522 94.3867C95.5027 94.4884 95.478 94.539 95.4285 94.6397ZM95.7421 91.2692C95.6529 91.2605 95.5671 91.2502 95.4797 91.2396C95.6026 91.7887 95.664 92.0481 95.7869 92.5452C95.8295 92.1855 95.8509 92.0003 95.8935 91.615C95.908 91.486 95.9155 91.4205 95.9298 91.288C95.8658 91.2818 95.8037 91.2754 95.7421 91.2692ZM97.2497 84.2697C96.7934 84.2845 96.3341 84.3165 95.8829 84.3698C95.5612 84.4078 95.2397 84.4536 94.9267 84.5076C94.8333 84.5236 94.7409 84.5407 94.6489 84.558C94.4328 84.8146 94.3247 84.9405 94.1084 85.1914C94.3624 85.5845 94.4894 85.7767 94.7432 86.162C95.0955 86.1027 95.4716 86.0558 95.8677 86.021C96.1064 86.0001 96.3563 85.9822 96.612 85.97C96.6165 85.97 96.6185 85.97 96.6227 85.97C96.6816 85.563 96.711 85.3601 96.7699 84.9435C97.065 84.9349 97.2124 84.9307 97.5076 84.9213C97.8129 84.9117 97.9654 84.9068 98.2707 84.8961C98.2121 85.3526 98.1826 85.5747 98.1239 86.0206C100.563 86.2203 101.858 86.7694 102.109 87.7266C101.174 87.8668 100.706 87.935 99.7705 88.0699C99.6572 87.5224 98.9152 87.2212 97.9812 87.0964C97.8519 88.085 97.7871 88.581 97.6574 89.7326C98.4124 89.8068 99.0161 89.8444 99.1908 89.8734C100.373 90.1558 102.123 90.6209 102.099 92.8502C101.544 94.961 98.8486 95.7106 96.9589 95.8401C96.9015 96.2809 96.8732 96.4985 96.816 96.9401C96.4939 96.9441 96.3326 96.946 96.0104 96.9501C95.6838 96.9541 95.5202 96.9563 95.1934 96.9618C95.254 96.5275 95.2843 96.3135 95.3448 95.8811C93.4611 95.8898 90.7225 95.5421 89.8336 93.563C90.7731 93.4262 91.2424 93.3584 92.1809 93.2216C92.4064 94.0831 93.7745 94.5234 95.2872 94.6299C95.3504 94.1637 95.382 93.9263 95.4453 93.429C95.1226 92.5738 94.9615 92.1159 94.6389 91.1175C92.1323 90.6674 90.9645 89.7172 91.0792 88.4496C91.3681 87.5397 92.1461 86.9066 93.3647 86.4999C92.9 86.0317 92.6673 85.7994 92.2016 85.3211C92.2332 85.2797 92.2492 85.2588 92.2807 85.2172C89.7713 86.0967 87.4208 87.9295 86.8983 90.6599C85.949 95.6219 91.2761 97.765 95.3171 97.7023C99.6478 97.6353 105.438 95.3834 105.833 90.3649C106.192 85.7987 100.89 84.1522 97.2497 84.2697Z" fill="#1C834E"/>
<path d="M96.7706 84.9432C96.7118 85.3598 96.6823 85.5627 96.6234 85.9698C96.6192 85.9698 96.6173 85.9698 96.6128 85.9698C96.357 85.9819 96.1072 85.9996 95.8685 86.0208C95.4721 86.0557 95.0962 86.1025 94.744 86.1618C95.0053 86.5586 95.1359 86.7553 95.3972 87.1572C95.3981 87.1572 95.3985 87.1572 95.3993 87.1572C95.4377 87.1506 95.4742 87.144 95.5124 87.1376C95.5787 87.1263 95.6468 87.1164 95.7129 87.107C95.7151 87.107 95.7151 87.107 95.7172 87.107C95.954 87.0757 96.2015 87.0537 96.4489 87.0428C96.4553 87.0413 96.4619 87.0413 96.4681 87.0413C96.3333 87.9804 96.2661 88.4513 96.1313 89.5401C96.0459 89.5267 95.958 89.5128 95.8731 89.4981C95.8053 89.4864 95.7345 89.4731 95.666 89.4599C95.6513 89.458 95.6383 89.4541 95.6235 89.4522C95.5764 89.4433 95.5297 89.436 95.4849 89.4253C95.4123 89.8247 95.3761 90.0316 95.3035 90.4664C95.3744 90.7659 95.4098 90.9238 95.4806 91.24C95.5681 91.2506 95.6538 91.2609 95.743 91.2696C95.8047 91.2756 95.8667 91.2822 95.9307 91.2886C95.9165 91.4211 95.909 91.4864 95.8945 91.6156C95.8518 92.0009 95.8305 92.1861 95.7878 92.5458C95.8774 92.9095 95.9222 93.0849 96.0118 93.4271C95.8286 93.8224 95.7366 94.0144 95.5534 94.3868C95.5397 94.4909 95.5327 94.5426 95.5192 94.6454C95.4894 94.6435 95.4593 94.6413 95.4296 94.6399C95.3831 94.6375 95.3358 94.6345 95.2886 94.6292C93.7759 94.5227 92.4078 94.0824 92.1823 93.221C91.244 93.3577 90.7745 93.4256 89.835 93.5623C90.7239 95.5414 93.4625 95.8891 95.3462 95.8804C95.2856 96.3128 95.2553 96.5268 95.1947 96.9611C95.5216 96.9556 95.6852 96.9535 96.0118 96.9494C96.1166 96.1588 96.169 95.7771 96.274 94.9707C96.7137 91.6235 97.0431 88.2654 97.5088 84.921C97.2131 84.9304 97.0657 84.9347 96.7706 84.9432ZM94.4496 90.5428C94.5042 89.9817 94.5315 89.7189 94.5861 89.2141C94.5861 89.2135 94.5861 89.2131 94.5861 89.2124C94.5754 89.2105 94.5648 89.2071 94.5562 89.2054C94.4965 89.1877 94.4408 89.1698 94.3856 89.1501C94.3408 89.1361 94.2975 89.119 94.2554 89.1041C94.245 89.1002 94.2362 89.0968 94.2277 89.0934C94.1876 89.0772 94.1464 89.0627 94.1082 89.0456C94.0598 89.0241 94.012 89.0032 93.9672 88.9801C93.9203 88.959 93.8776 88.9345 93.8369 88.9114C93.8134 88.8991 93.7899 88.885 93.7686 88.8692C93.7515 88.8604 93.7366 88.8481 93.7217 88.8376C93.7044 88.8255 93.6897 88.815 93.6745 88.8043C93.6703 88.8007 93.6681 88.799 93.666 88.7973C93.6447 88.7798 93.6255 88.7623 93.6063 88.745C93.5849 88.7275 93.5679 88.7083 93.5506 88.6891C93.5463 88.684 93.5399 88.6787 93.5356 88.6718C93.5186 88.6509 93.5015 88.6283 93.4887 88.6057C93.4738 88.5833 93.461 88.5607 93.4525 88.5383C93.4503 88.5349 93.4503 88.5315 93.4503 88.5296C93.4461 88.5193 93.4397 88.5072 93.4375 88.495C93.4333 88.4828 93.429 88.4709 93.429 88.4589C93.4268 88.4572 93.4269 88.4538 93.4269 88.4504C93.4205 88.4263 93.4183 88.4022 93.4183 88.3766C93.4183 88.3254 93.429 88.2725 93.4482 88.2164C93.4589 88.1893 93.4717 88.1622 93.4866 88.1334C93.5037 88.1046 93.5207 88.076 93.5421 88.0474C93.5549 88.0222 93.5698 87.9971 93.5847 87.9719C93.6274 87.9066 93.6809 87.845 93.7471 87.7867C93.762 87.775 93.7748 87.7635 93.7897 87.7517C93.7961 87.7451 93.8047 87.7402 93.8111 87.7351C93.8175 87.7285 93.826 87.7219 93.8345 87.717C93.8495 87.7055 93.8644 87.6939 93.8815 87.6822C93.8985 87.6705 93.9156 87.6592 93.9327 87.6474C93.9348 87.6457 93.9371 87.6457 93.9391 87.644C93.9711 87.6227 94.0054 87.6043 94.0395 87.5847C94.0438 87.583 94.0459 87.5798 94.0502 87.5781C94.0587 87.5732 94.0694 87.5683 94.0779 87.5632C94.1121 87.5452 94.1486 87.5271 94.1867 87.5092C94.2251 87.4913 94.2659 87.4746 94.3086 87.4552C93.9316 87.0682 93.7432 86.8788 93.3658 86.4982C92.1475 86.9048 91.3693 87.5382 91.0804 88.4479C90.9656 89.7155 92.1334 90.6657 94.6401 91.1158C94.5637 90.8811 94.5257 90.7668 94.4496 90.5428Z" fill="#C6DB8F"/>
<path d="M99.1919 89.8729C99.0172 89.8439 98.4134 89.8063 97.6584 89.7321C97.7879 88.5805 97.8528 88.0845 97.9823 87.0959C98.9163 87.221 99.658 87.5222 99.7715 88.0694C100.707 87.9346 101.175 87.8661 102.11 87.7261C101.859 86.7689 100.564 86.2198 98.125 86.0201C98.1837 85.5742 98.2131 85.3522 98.2718 84.8956C97.9665 84.9063 97.814 84.9112 97.5087 84.9208C97.043 88.2652 96.7134 91.6233 96.2739 94.9705C96.1689 95.7769 96.1165 96.1586 96.0117 96.9492C96.3341 96.9451 96.4953 96.9432 96.8173 96.9391C96.8744 96.4975 96.9028 96.2802 96.9602 95.8392C98.8497 95.7097 101.546 94.9601 102.101 92.8493C102.124 90.6204 100.374 90.1554 99.1919 89.8729ZM97.12 94.579C97.2619 93.4383 97.3327 92.8508 97.4748 91.4661C98.9849 91.6521 99.7583 92.0619 99.7721 92.8231C99.5659 93.823 98.6521 94.3832 97.12 94.579Z" fill="#C6DB8F"/>
<path d="M113.209 87.7287C111.378 87.7927 109.84 88.9521 109.769 90.5536C109.697 92.185 111.133 93.402 113.025 93.3856C114.92 93.3692 116.514 92.1018 116.521 90.4388C116.528 88.8062 115.044 87.6644 113.209 87.7287Z" fill="#1C834E"/>
<path d="M79.8657 88.2693C78.0865 88.2757 76.3649 89.4252 76.0108 91.0362C75.6503 92.6766 76.7447 93.8859 78.5825 93.8456C80.4236 93.8049 82.2369 92.5622 82.5471 90.9343C82.8518 89.3356 81.6481 88.2627 79.8657 88.2693Z" fill="#1C834E"/>
<path d="M124.455 96.2311C124.016 94.123 123.777 91.9694 123.708 89.8186C123.652 88.0692 123.722 86.3779 123.928 84.6787C124.511 84.7585 124.803 84.799 125.387 84.8824C125.441 85.2948 125.469 85.5011 125.523 85.9148C125.628 88.6175 125.736 91.3202 125.81 94.0242C125.97 94.4942 126.05 94.7299 126.21 95.2042C126.206 95.9114 126.204 96.2644 126.199 96.9706C126.199 96.9704 124.857 98.1659 124.455 96.2311Z" fill="#1C834E"/>
<path d="M70.9952 81.0334C70.8775 82.9131 70.6368 84.6936 70.2771 86.5265C70.0086 87.8951 69.6768 89.2949 69.2817 90.765C68.832 92.4382 68.2266 94.0926 67.581 95.7427C66.6093 98.2272 65.5572 100.701 64.4939 103.162C64.4896 103.169 64.4877 103.174 64.4856 103.18C64.4244 103.181 64.3938 103.181 64.3328 103.181C64.332 103.181 64.3316 103.181 64.3307 103.181C63.7675 103.184 63.4865 103.186 62.9268 103.191C64.6385 99.0961 66.4226 94.9167 67.5845 90.7627C68.4604 87.6303 68.9869 84.3352 69.3033 81.001C69.9785 81.0148 70.3168 81.0212 70.9952 81.0334Z" fill="#1C834E"/>
<path d="M11.6367 163.962C11.6367 162.963 13.0767 162.145 14.8367 162.145H22.8446C24.6046 162.145 27.459 161.875 29.1879 161.545L71.0337 153.56C72.7625 153.23 75.6169 152.96 77.3769 152.96H131.642C133.402 152.96 136.193 153.46 137.843 154.071L159.555 162.111C161.205 162.722 163.996 163.227 165.756 163.234L174.593 163.265C176.353 163.271 177.793 163.948 177.793 164.77C177.793 165.591 176.353 166.232 174.593 166.194L160.635 165.891C158.875 165.853 156.035 165.486 154.324 165.077L144.112 162.632C142.4 162.223 139.56 161.885 137.8 161.882L49.9772 161.718C48.2172 161.714 45.3626 161.981 43.6335 162.31L28.54 165.181C26.8111 165.511 23.9565 165.78 22.1965 165.78H14.8365C13.0767 165.78 11.6367 164.962 11.6367 163.962Z" fill="#C6B5BF"/>
<path fill-rule="evenodd" clip-rule="evenodd" d="M68.8861 84.5119L68.6517 85.9969L67.2721 85.9329L65.2586 85.9958L64.9425 85.9969C64.6481 85.7537 64.4913 85.5544 64.3648 85.2338L47.6006 83.9532L48.2675 81.5602L64.7118 82.2849L66.1156 81.6534L69.6081 81.224L68.8861 84.5119Z" fill="#F49C84"/>
<path fill-rule="evenodd" clip-rule="evenodd" d="M72.1471 85.8552L68.763 84.8508C68.4791 84.7666 68.3159 84.4656 68.4001 84.1818C68.4844 83.8979 68.7854 83.7347 69.0693 83.8189L72.4535 84.8231C72.7372 84.9074 72.9006 85.2086 72.8163 85.4923C72.7321 85.7761 72.4308 85.9395 72.1471 85.8552Z" fill="#FFB288"/>
<path fill-rule="evenodd" clip-rule="evenodd" d="M72.66 83.5948L69.4038 82.7809C69.1165 82.7092 68.9403 82.4155 69.0122 82.1281C69.0838 81.841 69.3776 81.6648 69.665 81.7364L72.9211 82.5503C73.2082 82.622 73.3844 82.9157 73.3128 83.2031C73.2407 83.4902 72.9471 83.6665 72.66 83.5948Z" fill="#FFB288"/>
<path fill-rule="evenodd" clip-rule="evenodd" d="M71.8307 82.3792L69.4911 81.8975C69.2927 81.8567 69.1641 81.6611 69.2048 81.4627C69.2455 81.2643 69.4412 81.1355 69.6396 81.1764L71.9792 81.6581C72.1776 81.6989 72.3062 81.8947 72.2655 82.0929C72.2247 82.2913 72.0291 82.4202 71.8307 82.3792Z" fill="#FFB288"/>
<path fill-rule="evenodd" clip-rule="evenodd" d="M72.8531 84.9204L69.1257 83.8764C68.8044 83.7863 68.615 83.4497 68.705 83.1284C68.7951 82.8069 69.1317 82.6177 69.4532 82.7077L73.1806 83.7518C73.502 83.8418 73.6913 84.1784 73.6012 84.4997C73.5112 84.8212 73.1746 85.0106 72.8531 84.9204Z" fill="#FFB288"/>
<path fill-rule="evenodd" clip-rule="evenodd" d="M64.9972 96.4938L65.2714 96.4104C64.4991 96.2067 64.2437 95.6735 63.4713 95.5278L62.4052 95.751C62.1672 95.8756 62.0253 96.0253 61.9794 96.2003L47.3838 92.9811L51.1425 97.1257C54.5206 97.406 57.8864 98.6173 61.1201 99.325C61.3972 99.723 61.8064 100.099 62.3476 100.454L65.4495 101.356L66.6896 97.2458L64.9972 96.4938Z" fill="#F49C84"/>
<path fill-rule="evenodd" clip-rule="evenodd" d="M68.6055 101.301L65.6722 101.41C65.4266 101.419 65.2184 101.225 65.2093 100.98L65.2073 100.925C65.1982 100.679 65.3917 100.471 65.6372 100.462L68.5705 100.353C68.8161 100.344 69.0243 100.537 69.0335 100.783L69.0354 100.838C69.0444 101.083 68.8509 101.292 68.6055 101.301Z" fill="#FFB288"/>
<path fill-rule="evenodd" clip-rule="evenodd" d="M69.4913 100.373L65.8209 100.509C65.5754 100.518 65.3672 100.325 65.358 100.079L65.3548 99.9933C65.3458 99.7477 65.5391 99.5395 65.7847 99.5304L69.4551 99.3945C69.7004 99.3855 69.9088 99.5788 69.9178 99.8243L69.921 99.9103C69.9302 100.156 69.7367 100.364 69.4913 100.373Z" fill="#FFB288"/>
<path fill-rule="evenodd" clip-rule="evenodd" d="M70.3734 99.3887L66.08 99.5476C65.7743 99.5589 65.5149 99.3181 65.5036 99.0121L65.5023 98.9769C65.491 98.6712 65.7321 98.4118 66.0378 98.4005L70.3312 98.2416C70.6371 98.2303 70.8963 98.4711 70.9078 98.7768L70.9091 98.812C70.92 99.118 70.6791 99.3776 70.3734 99.3887Z" fill="#FFB288"/>
<path fill-rule="evenodd" clip-rule="evenodd" d="M70.076 98.2849L66.318 98.424C66.0123 98.4353 65.7529 98.1945 65.7413 97.8886L65.7396 97.8418C65.7283 97.5359 65.9692 97.2767 66.2751 97.2652L70.033 97.1261C70.3389 97.1148 70.5983 97.3557 70.6096 97.6614L70.6113 97.7081C70.6228 98.0142 70.382 98.2736 70.076 98.2849Z" fill="#FFB288"/>
<path d="M73.3772 150.882L77.3595 148.962L75.7239 145.265L70.9951 145.691L73.3772 150.882Z" fill="#D8D8D8"/>
<path d="M18.6641 156.709L22.1335 159.449L24.7424 156.36L22.2888 152.295L18.6641 156.709Z" fill="#D8D8D8"/>
<path d="M39.9797 107.002C40.1143 106.81 40.3823 106.762 40.5751 106.896L63.056 122.488C63.2488 122.621 63.5136 122.89 63.6441 123.085L77.9757 144.459C78.1065 144.654 78.0527 144.918 77.8564 145.047L71.6602 149.11C71.4639 149.238 71.1921 149.187 71.0558 148.996L58.2935 131.067C58.1574 130.876 57.8839 130.617 57.6853 130.492L34.3656 115.761C34.1672 115.635 34.1149 115.376 34.2496 115.184L39.9797 107.002Z" fill="black"/>
<path d="M25.9206 158.231C26.0991 158.384 26.3882 158.38 26.5631 158.224L49.8152 137.411C49.9899 137.254 50.0714 136.944 49.9961 136.722L40.6843 109.241C40.609 109.019 40.3675 108.904 40.1474 108.986L27.0433 113.843C26.8234 113.925 26.6958 114.176 26.7598 114.402L31.1127 121.192C31.2853 121.351 31.5297 121.643 31.656 121.841L39.124 133.535C39.2503 133.732 39.2112 134.023 39.037 134.18L19.2923 152.023C19.1182 152.18 19.1218 152.434 19.3004 152.586L25.9206 158.231Z" fill="#1E1E1E"/>
<path d="M77.3513 147.322L72.3659 149.062C72.1127 150.079 72.46 152.421 72.46 152.421L76.5683 151.765C80.435 152.952 84.0338 152.482 87.8123 150.472C88.0978 150.221 87.9247 149.36 87.4849 149.196C82.1603 149.316 82.2846 150.221 77.3513 147.322Z" fill="#7E3D31"/>
<path d="M76.5683 151.765L72.46 152.421L72.8937 154.443L76.9814 153.618L76.7296 152.385C80.1645 153.32 83.5224 152.856 87.3492 151.352C87.5433 151.276 87.8588 150.421 87.8588 150.421C84.2445 152.36 80.495 152.549 76.5683 151.765Z" fill="#271D22"/>
<path d="M62.771 81.5135L62.3401 85.9466C62.3401 85.9466 44.371 87.0687 35.5112 86.6037C32.5886 86.4479 30.6558 86.1194 30.6899 85.5221L26.2696 80.801L24.9043 79.3418C25.0664 79.5018 25.54 79.6511 26.2654 79.7919C26.7795 79.8901 27.4216 79.9818 28.1662 80.0714C37.4142 81.1722 62.771 81.5135 62.771 81.5135Z" fill="#FFCE00"/>
<path d="M35.5113 86.6038C32.5887 86.4481 30.6559 86.1195 30.69 85.5222L26.2697 80.8011C26.2996 80.5046 26.2057 80.1078 26.2655 79.7921C26.2761 79.7302 26.2953 79.6705 26.3209 79.615C26.8628 79.7515 27.4857 79.8774 28.1663 80.0715C29.5551 80.4683 31.1721 81.1574 32.7636 82.8257C33.702 83.8091 34.5919 85.1785 35.5113 86.6038Z" fill="#DDA505"/>
<path d="M25.8332 78.9808L26.2648 68.5578L24.5054 68.4695L17.9729 67.7452L17.3984 81.617L19.9565 81.927C20.6196 79.9159 22.5786 78.9339 25.8332 78.9808Z" fill="#F58D6C"/>
<path d="M25.8335 78.9809C22.5791 78.9339 20.6201 79.9159 19.957 81.9272L25.7642 83.3971L25.8335 78.9809Z" fill="#FFB288"/>
<path d="M14.4824 60.5288C16.0705 58.8226 17.6645 59.9148 17.3778 61.0141C17.3778 61.0141 16.2851 62.6323 16.7288 61.5214C17.3181 60.0473 15.9715 59.7568 14.4824 60.5288Z" fill="#773024"/>
<path d="M26.1082 59.0811C29.1831 60.446 31.1861 63.1429 30.448 69.246C31.2017 71.2502 33.334 72.5322 30.2696 72.8748C29.8656 73.9171 31.1302 74.0434 30.0971 74.7444C30.1468 74.7495 30.5813 75.2323 29.9991 75.5197C29.7877 75.624 29.8184 75.7147 29.9095 76.187C29.8596 78.2781 28.201 78.8539 26.6078 78.6418C23.8539 77.9003 20.6829 76.4925 20.3848 73.4817L20.2822 58.4692L26.1082 59.0811Z" fill="#FFB288"/>
<path d="M25.365 63.2159C25.5803 66.2668 23.9433 68.4498 21.0055 68.555C21.0055 68.555 20.8291 69.768 20.6644 70.1185C19.4734 72.6425 19.9116 70.8916 18.188 73.9645C17.9465 74.4993 16.3122 73.0009 15.5013 71.9188C12.2467 67.1287 13.474 60.9904 16.6815 59.7714C17.9333 55.0903 33.1685 55.5393 32.0231 65.2995C29.7386 65.7416 26.2126 65.1078 25.365 63.2159Z" fill="#773024"/>
<path d="M21.0055 68.5552C19.96 67.0691 18.3474 67.4412 17.9337 68.6229C17.4062 70.0539 19.1171 71.9918 20.5705 72.0409L21.0055 68.5552Z" fill="#FFB288"/>
<path d="M20.9618 68.9828C20.1443 67.8209 18.8833 68.1117 18.5599 69.0357C18.1473 70.1546 19.4851 71.6699 20.6218 71.7083L20.9618 68.9828Z" fill="#F58D6C"/>
<path d="M29.8719 68.3709C29.265 67.896 28.2988 67.7463 27.0792 67.8254C26.9141 67.7932 26.8076 67.6078 26.8426 67.4139C26.8778 67.2198 27.0414 67.0875 27.2065 67.1197C28.2111 67.086 29.1442 67.2611 29.9993 67.6652C30.1644 67.6974 30.2709 67.8828 30.2359 68.0767C30.2009 68.2708 30.037 68.4033 29.8719 68.3709Z" fill="#773024"/>
<path d="M29.5512 69.0643C29.5305 69.3169 29.2877 69.5018 29.0089 69.4777C28.73 69.4534 28.5208 69.2292 28.5415 68.9766C28.5621 68.724 28.8049 68.539 29.0837 68.5631C29.3628 68.5875 29.5721 68.8117 29.5512 69.0643Z" fill="#3E2C27"/>
<path d="M29.5909 68.7525C29.0288 68.587 28.5164 68.6762 28.0443 68.9736C27.96 68.9857 27.8753 68.8983 27.8557 68.7796C27.836 68.6608 27.8887 68.5539 27.9728 68.542C28.3261 68.2555 28.7602 68.075 29.5195 68.3208C29.6037 68.3088 29.6884 68.3961 29.708 68.5147C29.7279 68.6335 29.6752 68.7404 29.5909 68.7525Z" fill="#E5846A"/>
<path d="M24.707 61.0656C25.141 63.4926 24.2388 65.9842 29.635 65.505C25.2122 65.2262 25.4232 62.6466 24.707 61.0656Z" fill="#773024"/>
<path d="M30.1098 74.7869C29.7329 74.7327 28.5395 74.4315 28.3564 74.0763C28.3564 74.0763 29.9532 74.3566 30.5194 74.225C30.5211 74.3814 30.4202 74.554 30.1098 74.7869Z" fill="#F58D6C"/>
<path d="M34.7766 91.1306C36.7446 95.3213 37.633 101.786 41.3738 106.988C36.306 112.401 35.4544 111.89 27.3676 113.781C27.349 113.622 27.3942 113.965 27.3676 113.781C27.0866 111.952 26.3316 109.163 22.8061 100.48C22.2825 99.1886 18.248 94.3331 16.7436 92.401C16.0524 91.6099 15.6163 90.7956 15.3757 89.9314C14.6079 87.1869 15.8211 83.9368 17.1606 79.3424C19.4608 81.0425 22.9624 84.9392 25.7637 81.4156C26.0248 81.087 25.8672 80.2992 26.1225 79.8416C27.5651 80.3679 29.7356 80.8091 31.5073 83.6108C32.6996 85.4952 33.5864 88.5866 34.7766 91.1306Z" fill="#FFCE00"/>
<path d="M27.9774 82.7692L27.3935 80.6215L25.823 79.2637L25.7637 81.4156L27.9774 82.7692Z" fill="#DDA505"/>
<path d="M25.8332 83.9915L25.833 81.4155L27.6773 82.6386L27.6099 84.4677L36.6827 103.919L35.5542 106.988L33.1491 104.768L26.9167 84.6968L25.8332 83.9915Z" fill="#FF3000"/>
<path d="M26.0446 84.0099L25.7638 81.4155C21.312 82.3482 18.2995 80.5276 17.5172 78.7544C16.8815 79.4706 16.6656 80.5106 16.3125 81.9269C18.4354 83.1452 19.409 83.4366 26.0446 84.0099Z" fill="#DDA505"/>
<path d="M33.0041 89.0727C30.6034 90.1801 28.091 91.9712 26.084 92.9677C23.4514 94.8361 23.0915 97.0147 24.5057 100.731C26.1501 105.051 29.8452 111.045 30.3969 112.321C29.6545 112.409 27.7172 113.427 27.4371 113.449C27.3704 113.455 26.4788 113.074 26.2678 112.764C25.9869 110.935 23.8988 110.479 20.3734 101.797C19.8501 100.505 17.4431 93.2075 15.9384 91.2756C14.6239 88.9118 15.0151 86.9801 15.1374 86.4052C15.5154 84.6268 16.5313 81.3976 16.6506 81.3822C16.7297 81.372 18.5821 81.555 18.4839 82.4585C18.334 83.8413 16.718 86.1912 16.9639 86.2027C20.3331 86.361 29.371 87.8727 29.9971 88.0139C30.8464 88.2057 32.4855 88.1396 32.8221 88.7465C33.2151 89.4539 33.016 89.0674 33.0041 89.0727Z" fill="#DDA505"/>
<path d="M18.5565 83.3969C14.5405 88.928 16.9768 92.1614 20.0168 92.6948L60.1305 99.6992L61.2109 95.5421L18.5565 83.3969Z" fill="#FFCE00"/>
<path d="M26.0449 112.037C32.6593 111.167 37.0634 109.62 40.9388 106.206L42.3261 108.11C38.3873 111.413 32.4061 113.967 26.6435 113.991L26.0449 112.037Z" fill="#7E3D31"/>
<path d="M54.7656 98.7626L60.1741 99.7733L61.2107 95.5423L56.1271 94.0948L54.7656 98.7626Z" fill="#FFB600"/>
<path d="M57.4746 86.2545C59.3959 86.1997 61.2843 86.0224 62.6674 85.9494L62.7698 81.5129L57.6139 81.4214L57.4746 86.2545Z" fill="#FFB600"/>
<path d="M58.4894 85.7321C58.351 85.7958 58.1788 85.7408 58.1048 85.609C58.031 85.4771 58.0832 85.3186 58.2217 85.2548C58.3601 85.191 58.5323 85.2461 58.6061 85.3779C58.6801 85.5098 58.6279 85.6683 58.4894 85.7321Z" fill="white"/>
<path d="M27.7158 165.325C27.1294 165.655 26.1768 165.873 25.3969 165.78C24.2822 165.646 22.8181 165.043 22.2658 164.742C21.7098 164.436 18.5485 162.679 18.9877 160.78C18.3957 161.827 18.3872 161.85 18.3872 161.85L15.9556 160.486L15.9496 160.481C15.6369 160.254 15.4363 160.064 15.4756 159.965C15.5635 159.739 15.7845 159.214 16.0356 158.625C16.0463 158.602 16.0571 158.578 16.068 158.553V158.551C16.4505 157.771 18.7697 155.591 18.9762 155.131C19.6872 155.566 23.7143 157.93 23.7209 158.109C23.7687 159.324 24.0441 160.47 24.8443 161.388C25.6934 162.356 28.0578 164.292 28.1685 164.436C28.4079 164.739 28.1732 165.066 27.7158 165.325Z" fill="#7E3D31"/>
<path d="M27.7307 165.234C27.7307 165.234 27.7253 165.268 27.7155 165.325C27.1291 165.655 26.1765 165.873 25.3966 165.78C24.2819 165.646 22.8178 165.043 22.2655 164.742C21.7095 164.436 18.5481 162.679 18.9874 160.78C18.3954 161.827 18.3869 161.85 18.3869 161.85L15.9553 160.486L15.9493 160.481L15.1436 160.03C15.1436 160.03 15.663 159.183 16.0679 158.553V158.551C16.0807 158.531 16.0957 158.509 16.1082 158.488L19.2342 160.28C19.1259 163.006 24.3156 165.926 27.7307 165.234Z" fill="black"/>
<path fill-rule="evenodd" clip-rule="evenodd" d="M126.404 82.6058L126.211 84.1821L127.704 84.1456L127.371 84.7013C127.371 84.7013 129.7 84.4701 130.372 83.7656L147.473 84.3813L147.151 82.3803L130.656 80.8071L129.332 80.0225L125.909 79.2046L126.404 82.6058Z" fill="#F49C84"/>
<path fill-rule="evenodd" clip-rule="evenodd" d="M122.893 83.5733L126.368 82.9544C126.659 82.9025 126.855 82.6216 126.803 82.3302C126.751 82.0388 126.47 81.8427 126.179 81.8945L122.704 82.5134C122.412 82.5653 122.216 82.8462 122.268 83.1376C122.32 83.4291 122.601 83.6251 122.893 83.5733Z" fill="#FFB288"/>
<path fill-rule="evenodd" clip-rule="evenodd" d="M122.637 81.2695L125.963 80.8255C126.257 80.7863 126.465 80.5143 126.426 80.2207C126.387 79.9274 126.114 79.7192 125.821 79.7584L122.494 80.2026C122.201 80.2418 121.993 80.5138 122.032 80.8074C122.071 81.1005 122.343 81.3085 122.637 81.2695Z" fill="#FFB288"/>
<path fill-rule="evenodd" clip-rule="evenodd" d="M123.597 80.1546L125.976 79.9378C126.177 79.9195 126.327 79.7394 126.309 79.5378C126.291 79.3362 126.111 79.1865 125.909 79.2046L123.53 79.4214C123.329 79.4397 123.179 79.6198 123.197 79.8214C123.215 80.023 123.395 80.1729 123.597 80.1546Z" fill="#FFB288"/>
<path fill-rule="evenodd" clip-rule="evenodd" d="M122.296 82.5653L126.117 81.9453C126.446 81.892 126.672 81.5786 126.619 81.249C126.565 80.9194 126.252 80.6937 125.922 80.7471L122.102 81.367C121.772 81.4203 121.546 81.7339 121.6 82.0633C121.653 82.3929 121.967 82.6188 122.296 82.5653Z" fill="#FFB288"/>
<path fill-rule="evenodd" clip-rule="evenodd" d="M127.523 94.7449L127.249 94.6615C128.021 94.4577 128.277 93.9246 129.049 93.7789L130.115 94.0021C130.353 94.1266 130.495 94.2762 130.541 94.4511L145.137 93.6334L141.378 95.3766C138 95.6569 134.634 96.868 131.401 97.5758C131.123 97.9739 130.714 98.3504 130.173 98.705L127.071 99.6072L125.831 95.4969L127.523 94.7449Z" fill="#F49C84"/>
<path fill-rule="evenodd" clip-rule="evenodd" d="M123.915 99.5519L126.848 99.6605C127.093 99.6695 127.302 99.4762 127.311 99.2307L127.313 99.1758C127.322 98.9303 127.128 98.7221 126.883 98.7129L123.95 98.6043C123.704 98.5953 123.496 98.7886 123.487 99.0342L123.485 99.089C123.476 99.3346 123.669 99.5428 123.915 99.5519Z" fill="#FFB288"/>
<path fill-rule="evenodd" clip-rule="evenodd" d="M123.029 98.6241L126.699 98.76C126.945 98.769 127.153 98.5757 127.162 98.3301L127.165 98.2442C127.174 97.9986 126.981 97.7904 126.735 97.7812L123.065 97.6453C122.82 97.6362 122.611 97.8297 122.602 98.0752L122.599 98.1612C122.59 98.4067 122.783 98.6151 123.029 98.6241Z" fill="#FFB288"/>
<path fill-rule="evenodd" clip-rule="evenodd" d="M122.146 97.6399L126.44 97.7988C126.745 97.8101 127.005 97.569 127.016 97.2633L127.017 97.2281C127.029 96.9224 126.788 96.663 126.482 96.6517L122.189 96.4926C121.883 96.4813 121.624 96.7223 121.612 97.028L121.611 97.063C121.6 97.3691 121.841 97.6286 122.146 97.6399Z" fill="#FFB288"/>
<path fill-rule="evenodd" clip-rule="evenodd" d="M122.444 96.536L126.202 96.6751C126.508 96.6864 126.767 96.4454 126.779 96.1397L126.78 96.0929C126.792 95.787 126.551 95.5278 126.245 95.5163L122.487 95.3772C122.181 95.3659 121.922 95.6068 121.91 95.9127L121.909 95.9594C121.897 96.2651 122.138 96.5247 122.444 96.536Z" fill="#FFB288"/>
<path d="M134.252 155.924L129.931 154.7L130.718 150.449L135.442 149.94L134.252 155.924Z" fill="#D8D8D8"/>
<path d="M164.168 156.005L160.698 158.971L158.089 155.628L160.543 151.229L164.168 156.005Z" fill="#D8D8D8"/>
<path d="M152.526 105.262C152.399 105.065 152.149 105.029 151.97 105.181L130.495 123.505C130.317 123.657 130.159 123.973 130.146 124.208L128.501 151.996C128.487 152.23 128.667 152.432 128.902 152.444L136.109 152.827C136.344 152.84 136.558 152.659 136.585 152.426L139.427 128.592C139.455 128.359 139.634 128.056 139.825 127.919L158.167 114.762C158.358 114.626 158.409 114.353 158.282 114.155L152.526 105.262Z" fill="black"/>
<path d="M156.9 157.663C156.728 157.822 156.457 157.81 156.299 157.637L134.736 133.988C134.578 133.815 134.563 133.519 134.703 133.33L153.367 108.209C153.507 108.021 153.803 107.931 154.023 108.01L165.474 112.099C165.695 112.178 165.813 112.423 165.735 112.645L160.978 119.627C160.796 119.774 160.503 120.023 160.327 120.179L145.486 133.389C145.311 133.545 145.302 133.81 145.466 133.977L162.838 151.604C163.002 151.771 162.996 152.038 162.823 152.197L156.9 157.663Z" fill="#1E1E1E"/>
<path d="M129.578 152.96L134.842 153.79C135.314 154.816 135.49 157.368 135.49 157.368L131.322 157.508C127.798 159.553 124.171 159.787 120.029 158.425C119.694 158.217 119.674 157.27 120.069 157.007C125.309 156.051 125.386 157.035 129.578 152.96Z" fill="#333747"/>
<path d="M131.323 157.508L135.49 157.368L135.51 159.598L131.326 159.555L131.302 158.198C128.144 159.888 124.755 160.078 120.677 159.264C120.47 159.223 119.973 158.38 119.973 158.38C123.938 159.7 127.651 159.137 131.323 157.508Z" fill="#271D22"/>
<path d="M167.617 77.5935C166.733 78.4637 147.476 82.1861 147.476 82.1861L133.077 80.7393L132.757 86.7788L148.224 88.1654C148.224 88.1654 162.921 86.0656 162.856 84.8906L167.617 77.5935Z" fill="black"/>
<path d="M166.687 77.2317L166.256 66.8087L168.015 66.7204L174.548 65.9961L175.122 79.8679L172.564 80.1778C171.901 78.167 169.942 77.185 166.687 77.2317Z" fill="#F58D6C"/>
<path d="M166.687 77.2317C169.942 77.1848 171.9 78.1668 172.564 80.1781L166.882 82.3801L166.687 77.2317Z" fill="#FFB288"/>
<path d="M175.142 59.2653C175.142 59.2653 176.235 60.8834 175.791 59.7728L175.142 59.2653Z" fill="#773024"/>
<path d="M166.413 57.3321C163.338 58.6971 161.335 61.3942 162.073 67.4971C161.319 69.5013 159.187 70.7832 162.251 71.1259C162.655 72.1682 161.39 72.2945 162.424 72.9955C162.374 73.0006 161.939 73.4834 162.522 73.7705C162.733 73.8749 162.702 73.9655 162.611 74.4381C162.661 76.5292 164.32 77.1049 165.913 76.8929C168.667 76.1514 171.838 74.7436 172.136 71.7326L172.239 56.7201L166.413 57.3321Z" fill="#FFB288"/>
<path d="M162.856 66.4729C162.946 66.6498 163.933 67.2714 163.933 67.2714H164.543C164.543 67.2714 165.815 66.2587 165.885 65.9443C165.954 65.6298 162.856 66.4729 162.856 66.4729Z" fill="#F58D6C"/>
<path d="M177.019 70.1706C176.034 70.8191 175.654 71.7215 175.498 72.6623C175.325 72.9503 174.574 72.7498 174.331 72.2143C172.61 69.1423 173.047 70.8938 171.856 68.3701C171.69 68.0181 171.515 66.8063 171.515 66.8063C168.577 66.7018 166.939 64.5173 167.155 61.4666C166.307 63.3589 160.306 62.9119 159.026 60.8853C160.333 61.1786 160.8 60.5224 162 60.1618C160.955 60.3581 160.586 59.489 159.666 59.1519C161.586 58.8319 162.323 57.6443 163.542 56.7656C168.591 53.1253 174.962 54.7434 175.839 58.0213C179.046 59.2415 180.275 65.3791 177.019 70.1706Z" fill="#332B2A"/>
<path d="M171.515 66.8061C172.56 65.32 174.173 65.692 174.586 66.8737C175.114 68.3047 173.403 70.2427 171.95 70.2915L171.515 66.8061Z" fill="#FFB288"/>
<path d="M171.559 67.2338C172.376 66.0718 173.637 66.3628 173.961 67.2867C174.373 68.4057 173.035 69.921 171.899 69.9592L171.559 67.2338Z" fill="#F58D6C"/>
<path d="M162.946 66.6495C163.543 66.162 164.506 65.992 165.726 66.046C165.891 66.0103 165.993 65.823 165.954 65.6295H165.954C165.915 65.4363 165.749 65.3072 165.584 65.3428C164.579 65.33 163.65 65.5248 162.804 65.9466C162.639 65.9822 162.537 66.1695 162.576 66.363C162.615 66.5562 162.781 66.6853 162.946 66.6495Z" fill="#332B2A"/>
<path d="M163.477 67.1017C163.498 67.3543 163.74 67.5395 164.02 67.5152C164.298 67.4911 164.508 67.2666 164.487 67.0141C164.466 66.7615 164.223 66.5765 163.944 66.6006C163.665 66.6252 163.456 66.8494 163.477 67.1017Z" fill="#3E2C27"/>
<path d="M162.41 73.038C162.788 72.9838 163.885 72.763 164.275 72.5619C164.275 72.5619 162.567 72.6077 162.001 72.4763C161.999 72.6325 162.1 72.8049 162.41 73.038Z" fill="#F58D6C"/>
<path d="M157.744 89.3814C155.776 93.5722 154.887 100.037 151.146 105.239C156.214 110.651 157.066 110.141 165.153 112.032C165.171 111.873 165.126 112.216 165.153 112.032C165.433 110.203 166.189 107.413 169.714 98.731C170.237 97.4395 174.272 92.584 175.777 90.6518C176.468 89.861 176.904 89.0467 177.145 88.1823C177.912 85.4378 176.699 82.1876 175.36 77.5935C173.106 79.7535 164.773 83.0139 166.398 78.0925C164.955 78.6188 162.785 79.06 161.013 81.8617C159.821 83.7462 158.934 86.8377 157.744 89.3814Z" fill="white"/>
<path d="M166.476 82.2611L166.757 79.6667L164.864 81.4453L164.911 82.7189L155.838 102.17L156.966 105.239L159.456 103.899L165.604 82.9478L166.476 82.2611Z" fill="#0074FF"/>
<path d="M164.543 82.0586L165.392 78.7933L166.695 77.4323L166.78 79.6714L164.543 82.0586Z" fill="white"/>
<path d="M166.476 82.261L166.756 79.6665C171.208 80.5992 174.303 78.8637 175.085 77.0905C175.672 78.0387 175.713 78.9164 176.424 80.0914C174.302 81.3096 173.111 81.6878 166.476 82.261Z" fill="white"/>
<path d="M166.476 110.288C159.861 109.418 155.457 107.87 151.582 104.457L150.395 106.526C154.334 109.829 160.114 112.218 165.877 112.243L166.476 110.288Z" fill="black"/>
<path d="M171.24 81.3629L165.015 85.4028C165.015 85.4028 161.698 118.09 163.137 121.726C163.85 123.525 166.256 124.663 171.032 123.881C172.755 123.599 175.596 122.103 176.425 120.823C177.626 118.967 174.43 118.702 173.603 112.93C172.209 103.191 177.551 91.861 177.693 88.5388C178.032 84.7862 177.551 81.5018 175.605 78.2173C174.493 79.6667 176.227 80.5896 171.24 81.3629Z" fill="#1E1E1E"/>
<path d="M165.884 78.2173L160.647 88.3254L151.582 104.457L159.456 82.7261C160.453 80.8844 162.74 79.2374 165.884 78.2173Z" fill="#1E1E1E"/>
<path d="M175.453 77.5935L176.591 79.6665L172.239 82.261L171.157 82.3671L171.024 83.2855L163.416 103.846L165.015 85.4028C170.557 82.2632 173.509 79.6697 175.453 77.5935Z" fill="black"/>
<path d="M166.256 77.8966L159.456 90.4445L162.146 81.2585L163.186 81.6479L162.466 80.7519L164.007 78.7L166.256 77.8966Z" fill="black"/>
<path d="M172.503 90.946L155.102 98.8948L132.757 99.5482L131.31 93.7934L151.809 90.9437C151.809 90.9437 168.746 83.8409 171.858 82.5315C175.45 81.02 175.543 90.4127 172.503 90.946Z" fill="#282828"/>
<path d="M155.116 165.329C155.703 165.686 156.656 165.922 157.435 165.822C158.55 165.677 160.014 165.024 160.566 164.698C161.122 164.367 164.284 162.466 163.844 160.41C164.437 161.544 164.445 161.568 164.445 161.568L166.876 160.092L166.882 160.087C167.195 159.842 167.396 159.636 167.356 159.529C167.269 159.285 167.048 158.716 166.796 158.079C166.786 158.054 166.775 158.027 166.764 158.001L166.764 157.998C166.381 157.154 164.062 154.796 163.856 154.297C163.145 154.769 159.117 157.326 159.111 157.52C159.063 158.835 158.788 160.075 157.987 161.069C157.139 162.116 154.774 164.211 154.663 164.366C154.424 164.695 154.659 165.049 155.116 165.329Z" fill="#333747"/>
<path d="M155.102 165.231C155.102 165.231 155.107 165.267 155.116 165.329C155.703 165.686 156.656 165.922 157.435 165.822C158.55 165.677 160.014 165.024 160.566 164.698C161.122 164.367 164.284 162.466 163.844 160.41C164.437 161.544 164.445 161.568 164.445 161.568L166.877 160.092L166.883 160.087L167.688 159.599C167.688 159.599 167.169 158.683 166.764 158.001L166.764 157.999C166.751 157.977 166.736 157.953 166.724 157.931L163.598 159.87C163.706 162.82 158.517 165.98 155.102 165.231Z" fill="black"/>
<path d="M16.7211 60.3253C16.3124 59.383 17.5764 56.99 21.8317 56.9213C24.1967 56.8831 26.8367 56.7786 28.2458 56.4053C28.2458 56.4053 28.2345 57.351 27.1712 58.2161C26.108 59.0811 19.9567 60.3253 19.9567 60.3253H16.7211Z" fill="#773024"/>
<path d="M33.1092 110.615C33.0983 110.578 33.1026 110.591 33.1092 110.615V110.615Z" fill="#FFCE00"/>
<path d="M33.1154 110.631C33.1217 110.646 33.126 110.661 33.1283 110.67C33.1239 110.661 33.1198 110.648 33.1135 110.631C33.1113 110.627 33.1113 110.621 33.1113 110.619C33.1135 110.623 33.1154 110.627 33.1154 110.631Z" fill="#FFCE00"/>
<path d="M89.3105 64.9673L92.2109 55.3433H95.1465L90.6904 68.1401H87.9395L83.501 55.3433H86.4277L89.3105 64.9673ZM102.995 64.7827C102.995 64.2847 102.819 63.9038 102.468 63.6401C102.116 63.3706 101.483 63.0894 100.569 62.7964C99.6553 62.4976 98.9316 62.2046 98.3984 61.9175C96.9453 61.1323 96.2188 60.0747 96.2188 58.7446C96.2188 58.0532 96.4121 57.438 96.7988 56.8989C97.1914 56.354 97.751 55.9292 98.4775 55.6245C99.21 55.3198 100.03 55.1675 100.938 55.1675C101.853 55.1675 102.667 55.3345 103.382 55.6685C104.097 55.9966 104.65 56.4624 105.043 57.0659C105.441 57.6694 105.641 58.355 105.641 59.1226H103.004C103.004 58.5366 102.819 58.0825 102.45 57.7603C102.081 57.4321 101.562 57.2681 100.895 57.2681C100.25 57.2681 99.749 57.4058 99.3916 57.6812C99.0342 57.9507 98.8555 58.3081 98.8555 58.7534C98.8555 59.1694 99.0635 59.5181 99.4795 59.7993C99.9014 60.0806 100.52 60.3442 101.334 60.5903C102.834 61.0415 103.927 61.6011 104.612 62.269C105.298 62.937 105.641 63.769 105.641 64.7651C105.641 65.8726 105.222 66.7427 104.384 67.3755C103.546 68.0024 102.418 68.3159 101 68.3159C100.016 68.3159 99.1191 68.1372 98.3105 67.7798C97.502 67.4165 96.8838 66.9214 96.4561 66.2944C96.0342 65.6675 95.8232 64.9409 95.8232 64.1147H98.4688C98.4688 65.5269 99.3125 66.2329 101 66.2329C101.627 66.2329 102.116 66.1069 102.468 65.855C102.819 65.5972 102.995 65.2397 102.995 64.7827Z" fill="#1E1E1E"/>
</svg>
