<svg width="30" height="31" viewBox="0 0 30 31" fill="none" xmlns="http://www.w3.org/2000/svg">
<path fill-rule="evenodd" clip-rule="evenodd" d="M9.20798 24.2499C7.60381 24.2499 6.30589 25.5624 6.30589 27.1666C6.30589 28.7707 7.60381 30.0832 9.20798 30.0832C10.8121 30.0832 12.1246 28.7707 12.1246 27.1666C12.1246 25.5624 10.8121 24.2499 9.20798 24.2499ZM0.458008 2.37484C0.458008 3.17692 1.11426 3.83317 1.91634 3.83317H3.37467L8.62467 14.9019L6.65592 18.4603C5.59134 20.4144 6.99134 22.7915 9.20801 22.7915H25.2497C26.0518 22.7915 26.708 22.1353 26.708 21.3332C26.708 20.5311 26.0518 19.8748 25.2497 19.8748H9.20801L10.8122 16.9582H21.6768C22.7705 16.9582 23.733 16.3603 24.2288 15.4561L29.4497 5.9915C29.9893 5.029 29.2893 3.83317 28.1809 3.83317H6.59759L5.62051 1.74775C5.38717 1.23734 4.86217 0.916504 4.30801 0.916504H1.91634C1.11426 0.916504 0.458008 1.57275 0.458008 2.37484ZM23.7912 24.2499C22.187 24.2499 20.8891 25.5624 20.8891 27.1666C20.8891 28.7707 22.187 30.0832 23.7912 30.0832C25.3954 30.0832 26.7079 28.7707 26.7079 27.1666C26.7079 25.5624 25.3954 24.2499 23.7912 24.2499Z" fill="#969696"/>
</svg>
