<svg width="1440" height="450" viewBox="0 0 1440 450" fill="none" xmlns="http://www.w3.org/2000/svg">
<path d="M1533 233.801C1531.7 240.093 1530.3 246.306 1528.83 252.421C1528.49 253.811 1528.17 255.202 1527.82 256.582L1527.64 257.352C1526.7 261.081 1525.75 264.778 1524.76 268.438C1522.98 275.025 1521.13 281.495 1519.22 287.826C1518.87 288.99 1518.5 290.153 1518.16 291.307C1513.04 307.856 1507.49 323.496 1501.79 338.064C1500.84 340.49 1499.89 342.896 1498.93 345.262C1496.35 351.653 1493.74 357.827 1491.17 363.764C1489.31 367.995 1487.47 372.107 1485.62 376.092C1475.78 397.522 1466.3 415.323 1458.64 428.736C1451.5 441.261 1445.34 451.734 1442.25 457H-22V207.145C89.612 214.166 237.865 137.163 345.923 184.451C468.318 238.022 787.371 372.117 990.893 275.173C1167.21 191.176 1417.52 194.855 1533 233.801Z" fill="#263A81"/>
<path d="M216.475 455.467C216.475 455.467 233.135 405.656 280.856 396.07C328.577 386.484 363.904 423.919 406.424 409.327C448.944 394.736 515.96 317.505 595.724 373.948C675.489 430.39 670.26 446.464 720.567 433.278C770.875 420.093 782.381 455.467 782.381 455.467H216.475V455.467Z" fill="#39AA27"/>
<path d="M265.466 408.606C265.466 408.606 230.66 372.041 212.88 381.846C195.1 391.651 265.466 408.606 265.466 408.606Z" fill="#39AA27"/>
<path d="M256.593 417.853C256.593 417.853 224.509 407.373 216.477 412.613C208.446 417.853 256.593 417.853 256.593 417.853Z" fill="#39AA27"/>
<path d="M358.657 414.501C358.657 414.501 380.706 364.941 388.355 373.958C396.005 382.974 358.657 414.501 358.657 414.501Z" fill="#39AA27"/>
<path d="M353.257 411.143C353.257 411.143 362.256 374.856 348.757 377.109C335.258 379.364 353.257 411.143 353.257 411.143Z" fill="#39AA27"/>
<path d="M161.624 0C138.813 0 117.816 8.02129 101.35 21.416C79.7481 39.0481 66.001 65.837 66.001 95.803C66.001 148.701 161.623 266.293 161.623 266.293C161.623 266.293 205.054 212.871 233.302 161.866C247.049 137.198 257.245 113.056 257.245 95.8036C257.246 42.9098 214.42 0 161.624 0ZM161.624 139.541C136.925 139.541 116.91 119.566 116.91 94.8203C116.91 88.7643 118.118 83.0151 120.309 77.7162C127.031 61.4475 142.968 50.0224 161.624 50.0224C186.323 50.0224 206.338 70.075 206.338 94.8197C206.338 116.236 191.383 134.019 171.367 138.406C168.271 139.164 164.947 139.541 161.624 139.541Z" fill="#F99746"/>
<path d="M1047.24 239.688C1034.41 239.688 1024 250.113 1024 262.972C1024 275.831 1047.24 304.42 1047.24 304.42C1047.24 304.42 1070.48 275.832 1070.48 262.972C1070.48 250.112 1060.08 239.688 1047.24 239.688ZM1047.24 273.619C1041.24 273.619 1036.38 268.746 1036.38 262.736C1036.38 256.725 1041.24 251.852 1047.24 251.852C1053.24 251.852 1058.1 256.726 1058.1 262.736C1058.1 268.746 1053.24 273.619 1047.24 273.619Z" fill="#699FF0"/>
<path d="M233.3 161.865C205.052 212.87 161.622 266.291 161.622 266.291C161.622 266.291 66 148.699 66 95.8015C66 65.8356 79.7471 39.0467 101.349 21.4146C104.974 38.7436 110.866 58.5708 120.307 77.7141C118.117 83.013 116.908 88.7622 116.908 94.8183C116.908 119.564 136.924 139.539 161.622 139.539C164.946 139.539 168.269 139.162 171.365 138.404C188.057 149.833 208.451 158.232 233.3 161.865Z" fill="#ED7D2B"/>
<path d="M1106.71 277.179C1105.71 275.883 1104.24 274.94 1102.52 274.247C1102.91 274.57 1103.27 274.917 1103.59 275.296C1108.56 281.333 1110.18 289.393 1101.14 292.448C1095.96 294.194 1091.31 294.096 1088.44 293.748L1088.8 296.852C1088.8 296.852 1096.19 298.431 1104.45 294.746C1112.72 291.057 1111.28 283.15 1106.71 277.179Z" fill="#CDCFCF"/>
<path d="M1087.74 273.604C1087.74 273.604 1097.49 272.221 1101.64 275.364C1101.64 275.364 1093.72 273.956 1088.27 275.539L1087.74 273.604Z" fill="#F58F9C"/>
<path opacity="0.5" d="M1086.17 273.14C1088.1 290.293 1086.08 293.084 1086.08 293.085C1086.16 293.463 1086.25 293.797 1086.34 294.042C1087.22 296.503 1088.8 296.855 1088.8 296.855C1088.8 296.855 1089.82 283.437 1086.17 273.136C1086.17 273.137 1086.17 273.137 1086.17 273.14Z" fill="#CDCFCF"/>
<path d="M1334.05 346.136H1238.98L1238.87 287.257L1333.93 287.032L1334.05 346.136Z" fill="#DEC297"/>
<path d="M1338.79 287.577L1234.01 287.827L1233.97 267.273L1338.75 267.025L1338.79 287.577Z" fill="#DEC297"/>
<path opacity="0.5" d="M1248.67 336.673C1242.42 332.244 1245.82 292.241 1245.82 292.241L1333.94 287.591L1332.97 287.039L1238.87 287.259L1238.98 346.138H1334.05C1334.05 346.138 1254.93 341.102 1248.67 336.673Z" fill="#DEC297"/>
<path opacity="0.5" d="M1338.75 267.025L1268.01 267.192C1269.84 267.189 1328.39 267.094 1331.81 269.82C1335.29 272.589 1332.53 282.037 1332.53 282.037C1332.53 282.037 1234 285.05 1234 287.827L1338.78 287.577L1338.75 267.025Z" fill="#DEC297"/>
<path d="M1238.29 269.899C1238.29 269.899 1290.88 269.064 1293.65 269.908C1296.43 270.76 1242.63 269.485 1241.25 272.472C1239.87 275.461 1239 282.26 1239 282.26L1238.29 269.899Z" fill="#E6D2AC"/>
<path d="M1328.83 288.688C1328.83 288.688 1331.62 330.721 1330.65 332.976C1329.69 335.23 1329.01 292.745 1325.23 291.748C1321.46 290.749 1313.42 289.695 1313.42 289.695L1328.83 288.688Z" fill="#E6D2AC"/>
<path d="M1258.51 392.06L1266.94 391.939L1316.12 349.235L1307.69 349.354L1258.51 392.06Z" fill="#D5D5D6"/>
<path d="M1235.87 346.168H1338.79V350.319H1235.87V346.168Z" fill="#BBBEC0"/>
<path d="M1091.57 431.197C1091.57 454.365 1072.76 473.146 1049.56 473.146C1026.36 473.146 1007.55 454.365 1007.55 431.197C1007.55 408.034 1026.36 389.251 1049.56 389.251C1072.76 389.251 1091.57 408.033 1091.57 431.197Z" fill="#241F20"/>
<path d="M1076.62 431.196C1076.62 446.125 1064.51 458.228 1049.56 458.228C1034.61 458.228 1022.49 446.125 1022.49 431.196C1022.49 416.268 1034.61 404.169 1049.56 404.169C1064.51 404.169 1076.62 416.268 1076.62 431.196Z" fill="#8E9194"/>
<path d="M1049.56 453.72C1037.11 453.72 1027.01 443.636 1027.01 431.197C1027.01 418.758 1037.11 408.675 1049.56 408.675C1062.02 408.675 1072.12 418.758 1072.12 431.197C1072.12 443.636 1062.02 453.72 1049.56 453.72Z" fill="#59595B"/>
<path d="M1060.61 431.198C1060.61 437.293 1055.66 442.232 1049.56 442.232C1043.46 442.232 1038.51 437.293 1038.51 431.198C1038.51 425.106 1043.46 420.168 1049.56 420.168C1055.66 420.168 1060.61 425.106 1060.61 431.198Z" fill="#6E6F71"/>
<path d="M1049.52 427.419C1048.67 428.86 1049.08 430.856 1050.42 431.854L1050.46 431.888C1051.8 432.888 1053.83 432.71 1054.98 431.493L1081.12 403.737C1082.26 402.522 1082.1 400.709 1080.76 399.709L1072.75 393.728C1071.41 392.731 1069.63 393.091 1068.78 394.531L1049.52 427.419Z" fill="#D5D5D6"/>
<path opacity="0.5" d="M1072.74 393.732L1080.76 399.713C1082.1 400.713 1082.25 402.526 1081.11 403.741L1077.42 407.663C1077.42 407.661 1074.35 398.74 1067.12 404.232C1059.88 409.725 1053.93 424.234 1053.79 426.806C1053.65 429.373 1057.82 428.471 1057.82 428.471L1054.97 431.497C1053.83 432.714 1051.8 432.892 1050.46 431.892L1050.42 431.858C1049.08 430.859 1048.67 428.863 1049.51 427.423L1068.78 394.535C1069.62 393.095 1071.41 392.735 1072.74 393.732Z" fill="#D5D5D6"/>
<path d="M1107.5 436.848H1082.78C1082.78 436.848 1067.05 403.423 1013.57 403.423C1013.57 403.423 1019.55 368.494 1064.58 379.011C1109.62 389.527 1107.5 436.848 1107.5 436.848Z" fill="#C85F28"/>
<path d="M1097.07 429.339L1082.78 436.849H1107.5C1107.5 436.849 1109.62 389.528 1064.58 379.013C1054.44 376.645 1046.3 376.593 1039.74 377.913C1040.98 377.873 1085.1 374.002 1097.07 429.339Z" fill="#C85F28"/>
<path d="M1017.79 400.794C1017.79 400.794 1051.1 401.045 1075.49 421.827C1075.49 421.827 1060.13 400.043 1026 397.29C1026 397.29 1027.41 385.271 1036.55 380.764C1036.55 380.763 1024.59 383.266 1017.79 400.794Z" fill="#C85F28"/>
<path d="M1284.9 420.923H1302.86V431.696H1284.9V420.923Z" fill="#434143"/>
<path d="M1279.1 431.197C1279.1 454.365 1260.29 473.146 1237.09 473.146C1213.89 473.146 1195.08 454.365 1195.08 431.197C1195.08 408.034 1213.89 389.251 1237.09 389.251C1260.29 389.251 1279.1 408.033 1279.1 431.197Z" fill="#241F20"/>
<path d="M1237.09 458.226C1222.14 458.226 1210.03 446.125 1210.03 431.197C1210.03 416.27 1222.14 404.169 1237.09 404.169C1252.04 404.169 1264.16 416.27 1264.16 431.197C1264.16 446.125 1252.04 458.226 1237.09 458.226Z" fill="#8E9194"/>
<path d="M1259.65 431.196C1259.65 443.636 1249.55 453.721 1237.09 453.721C1224.63 453.721 1214.53 443.637 1214.53 431.196C1214.53 418.757 1224.63 408.675 1237.09 408.675C1249.55 408.675 1259.65 418.757 1259.65 431.196Z" fill="#59595B"/>
<path d="M1248.14 431.198C1248.14 437.293 1243.19 442.232 1237.09 442.232C1230.99 442.232 1226.04 437.293 1226.04 431.198C1226.04 425.106 1230.99 420.168 1237.09 420.168C1243.19 420.168 1248.14 425.106 1248.14 431.198Z" fill="#6E6F71"/>
<path d="M1102.87 280.165C1103.93 280.165 1109.56 280.866 1113.42 284.029C1117.3 287.192 1119.23 289.825 1119.23 289.825C1119.23 289.825 1120.46 293.513 1119.76 297.029C1119.05 300.54 1112.05 314.244 1112.05 314.244L1104.63 306.864L1106.04 297.028C1106.04 297.028 1107.09 292.461 1102.17 289.299L1102.87 280.165Z" fill="#821428"/>
<path d="M1119.23 289.825C1119.23 289.825 1117.3 287.191 1113.42 284.029C1109.56 280.866 1103.93 280.165 1102.87 280.165L1102.74 281.899C1104.53 282.489 1106.79 283.244 1108.85 283.794C1115.09 285.463 1116.42 289.59 1116.42 289.59C1116.42 289.59 1117.65 295.035 1116.94 298.549C1116.47 300.9 1108.79 306.983 1107.7 311.3L1112.05 314.244C1112.05 314.244 1119.05 300.539 1119.76 297.029C1120.46 293.513 1119.23 289.825 1119.23 289.825Z" fill="#CDCFCF"/>
<path d="M1145.47 436.617L1151.41 444.575C1151.41 444.575 1153.21 447.393 1158.14 447.393C1163.06 447.393 1191.21 447.393 1191.21 447.393C1191.21 447.393 1198.25 447.393 1203.17 444.933C1208.1 442.473 1209.53 441.773 1214.43 441.773C1219.33 441.773 1232.96 441.773 1232.96 441.773C1232.96 441.773 1237.65 442.707 1242.22 436.85C1245.82 432.242 1248.91 426.665 1248.91 426.665H1210.21C1210.21 426.664 1186.63 438.025 1145.47 436.617Z" fill="#2E2E2E"/>
<path d="M1085.98 272.611C1085.98 272.611 1084.58 272.611 1084.58 277.355C1084.58 282.098 1085.46 291.581 1086.34 294.041C1087.22 296.502 1088.8 296.853 1088.8 296.853C1088.8 296.853 1089.86 282.977 1085.98 272.611Z" fill="#C85F28"/>
<path d="M1085.98 272.612C1087.22 272.612 1102.13 271.206 1106.71 277.181C1111.28 283.152 1112.72 291.058 1104.45 294.747C1096.19 298.432 1088.8 296.854 1088.8 296.854L1085.98 272.612Z" fill="#C85F28"/>
<path d="M1235.4 437.554H1206.92L1209.63 435.779H1237.03L1235.4 437.554Z" fill="#59595B"/>
<path d="M1238.69 433.911H1212.43L1214.74 432.402H1240.07L1238.69 433.911Z" fill="#59595B"/>
<path d="M1261.83 349.946C1261.83 349.946 1229.81 351.55 1213.81 347.94C1197.8 344.329 1180.67 342.324 1177.32 348.742C1173.97 355.16 1170.25 365.99 1172.48 367.994C1174.71 370.003 1180.3 370.805 1184.02 370.805C1187.75 370.805 1267.33 370.805 1267.33 370.805C1267.33 370.805 1269.65 371.206 1271.51 364.788C1273.37 358.37 1276.72 347.94 1261.83 349.946Z" fill="#434143"/>
<path d="M1271.5 364.787C1272.65 360.848 1274.34 355.407 1272.05 352.245C1271.85 367.386 1261.83 365.99 1247.43 364.386C1233.04 362.78 1198.79 361.175 1186.38 360.641C1173.98 360.106 1175.57 352.436 1175.57 352.422C1172.86 358.661 1170.63 366.338 1172.48 367.993C1174.71 370.002 1180.3 370.803 1184.02 370.803C1187.74 370.803 1267.33 370.803 1267.33 370.803C1267.33 370.803 1269.64 371.204 1271.5 364.787Z" fill="#9B9B9B"/>
<path d="M1121.87 297.153C1118.91 297.153 1116.51 294.757 1116.51 291.801C1116.51 288.844 1118.91 286.448 1121.87 286.448C1124.83 286.448 1127.23 288.844 1127.23 291.801C1127.23 294.757 1124.83 297.153 1121.87 297.153Z" fill="#241F20"/>
<path d="M1102.75 297.498C1102.75 297.498 1140.75 291.877 1132.42 352.888C1126.15 398.829 1115.92 412.961 1126.47 416.124C1137.03 419.284 1175.32 416.124 1175.32 416.124C1175.32 416.124 1184.47 414.367 1183.06 404.182C1181.65 393.992 1172.91 380.292 1171.86 367.291H1265.62C1265.62 367.291 1295.7 388.021 1296.05 436.85H1274.25C1274.25 436.85 1270.17 437.361 1266.38 433.667C1262.58 429.972 1261.35 428.643 1261.35 428.643H1218.35C1218.35 428.643 1214.84 427.789 1210 431.389C1205.16 434.992 1200.7 441.152 1194.72 441.152C1188.74 441.152 1127.8 441.152 1127.8 441.152C1127.8 441.152 1115.75 441.625 1106.83 431.202C1097.9 420.773 1090.41 403.476 1084.43 394.342C1078.45 385.208 1067.51 380.958 1057.29 379.324C1057.29 379.324 1063.83 360.543 1075.68 356.054C1087.54 351.563 1098.94 320.793 1102.75 297.498Z" fill="#C85F28"/>
<path d="M1195.51 424.132C1196.5 421.919 1200.54 411.907 1197.36 403.108C1193.75 393.152 1193.75 384.247 1212.29 384.247C1230.82 384.247 1257.07 388.962 1267.37 403.108C1276.26 415.33 1277.85 422.848 1278.12 424.671L1278.18 424.672C1278.18 424.672 1277.64 416.308 1267.03 401.254C1256.42 386.196 1229.35 381.18 1210.24 381.18C1191.13 381.18 1191.13 390.658 1194.85 401.254C1198.57 411.847 1192.73 424.112 1192.73 424.112L1195.51 424.132Z" fill="#1F1D18"/>
<path d="M1265.62 367.292H1171.86C1171.94 368.324 1172.15 369.361 1172.45 370.398C1172.45 370.398 1234.55 376.427 1246.28 373.616C1258.01 370.805 1271.14 380.173 1276.31 389.072C1281.46 397.972 1284.33 417.645 1281.51 424.672C1278.7 431.699 1276.92 434.089 1270.72 431.23C1264.52 428.368 1266.03 424.675 1255.71 425.141C1245.39 425.607 1219.59 425.141 1219.59 425.141C1219.59 425.141 1213.02 424.202 1206.92 429.357C1200.82 434.51 1187.22 437.788 1166.58 438.256C1145.94 438.724 1123.93 441.041 1113.1 433.103C1102.4 425.262 1089.3 402.652 1088.99 402.116C1094.08 411.379 1100.04 423.272 1106.83 431.201C1115.75 441.625 1127.8 441.152 1127.8 441.152C1127.8 441.152 1188.74 441.152 1194.72 441.152C1200.7 441.152 1205.16 434.992 1210 431.389C1214.84 427.789 1218.35 428.643 1218.35 428.643H1261.35C1261.35 428.643 1262.58 429.972 1266.38 433.667C1270.17 437.361 1274.25 436.849 1274.25 436.849H1296.05C1295.7 388.021 1265.62 367.292 1265.62 367.292Z" fill="#CDCFCF"/>
<path d="M1126.8 324.2C1125.74 346.33 1112.4 399.026 1115.22 408.161C1118.03 417.295 1121.55 418.352 1134.57 420.106C1147.59 421.862 1172.96 420.02 1177.66 415.281C1177.67 415.279 1177.67 415.274 1177.67 415.27C1176.36 415.916 1175.32 416.124 1175.32 416.124C1175.32 416.124 1137.03 419.284 1126.48 416.124C1115.92 412.961 1126.16 398.829 1132.43 352.888C1140.75 291.877 1102.76 297.498 1102.76 297.498L1102.53 298.847C1102.53 298.847 1127.85 302.065 1126.8 324.2Z" fill="#CDCFCF"/>
<path d="M1103.52 306.823C1103.52 306.823 1102.16 350.923 1085.23 361.256C1068.3 371.589 1067.62 368.812 1060.54 378.747C1060.54 378.747 1066.35 369.153 1071.77 363.475C1077.19 357.796 1095.69 355.459 1103.52 306.823Z" fill="#FDBF55"/>
<path d="M1165.25 358.409L1161.56 353.159L1163.29 340.789C1163.53 339.126 1162.51 337.567 1161.03 337.306C1159.54 337.044 1158.15 338.18 1157.92 339.842L1156.24 351.754C1155.97 351.87 1155.7 352.034 1155.47 352.264L1150.89 356.737C1149.84 357.77 1149.73 359.568 1150.65 360.753C1151.57 361.935 1153.18 362.057 1154.23 361.024L1155.56 359.727L1155.38 360.986C1155.17 362.539 1156.11 363.993 1157.5 364.238C1158.89 364.482 1160.19 363.422 1160.4 361.87L1160.54 360.911L1161.25 361.927C1162.12 363.163 1163.72 363.375 1164.82 362.404C1165.92 361.433 1166.11 359.643 1165.25 358.409Z" fill="#EA7624"/>
<path d="M1192.92 377.11L1189.23 371.861L1190.97 359.493C1191.2 357.83 1190.19 356.271 1188.7 356.008C1187.22 355.748 1185.83 356.883 1185.59 358.545L1183.92 370.456C1183.64 370.572 1183.38 370.737 1183.15 370.965L1178.57 375.44C1177.51 376.473 1177.4 378.269 1178.33 379.454C1179.25 380.636 1180.85 380.76 1181.91 379.727L1183.24 378.429L1183.06 379.688C1182.84 381.24 1183.79 382.696 1185.18 382.94C1186.56 383.185 1187.87 382.125 1188.08 380.573L1188.22 379.613L1188.93 380.629C1189.8 381.864 1191.4 382.077 1192.5 381.105C1193.6 380.134 1193.79 378.345 1192.92 377.11Z" fill="#EA7624"/>
<path d="M1247.09 213.875C1241.31 204.595 1231.19 199.029 1221.13 195.12C1209.48 190.594 1199.73 193.451 1187.98 192.984C1177.07 192.55 1166.12 193.864 1155.45 196.378C1155.45 196.378 1143.19 176.515 1139.6 177.487C1136.02 178.458 1105.86 278.875 1132.86 326.447C1143.89 345.889 1161.18 354.185 1180.31 357.004C1198.88 360.08 1218.06 357.49 1233.43 342.178C1248.64 327.026 1253.52 304.614 1255.07 282.754C1256.48 262.737 1255.09 244.177 1251.28 224.625C1250.49 220.565 1249.04 217.009 1247.09 213.875Z" fill="#263B80"/>
<path d="M1218.55 207.794C1217.92 207.47 1217.28 207.18 1216.65 206.924C1205.69 202.461 1189.38 220.446 1177.77 221.645C1166.69 222.793 1164.28 211.888 1157.22 204.267C1144.76 190.82 1124.67 215.429 1122.07 235.344C1118.7 261.163 1135.77 281.087 1157.19 270.452C1163.16 267.485 1165.11 260.289 1171.66 262.347C1177.82 264.281 1182.74 273.693 1187.63 278.117C1195.67 285.394 1202.52 291.247 1213.39 289.724C1228.97 287.541 1241.01 269.136 1243.06 251.588C1245.01 234.993 1231.64 214.476 1218.55 207.794Z" fill="#F2B81B"/>
<path d="M1165.91 265.275L1172.64 279.704L1175.52 257.692L1165.91 265.275Z" fill="#CA7B33"/>
<path d="M1175.51 257.692L1172.64 279.704L1182.79 268.037L1175.51 257.692Z" fill="#F58223"/>
<path d="M1136.52 293.548C1127.79 301.073 1126.02 313.614 1131.75 324.672C1143.11 346.621 1167 355.868 1188.47 357.786C1207.8 359.513 1219.73 348.911 1212.91 326.962C1207.73 310.3 1198.14 287.973 1181.34 283.489C1165.91 279.371 1149.19 282.616 1136.52 293.548Z" fill="#CBB7B1"/>
<path d="M1181.71 243.297C1179.55 259.901 1189.81 275.328 1204.64 277.754C1219.47 280.181 1233.25 268.689 1235.42 252.084C1237.59 235.481 1227.32 220.055 1212.49 217.628C1197.66 215.201 1183.88 226.694 1181.71 243.297Z" fill="white"/>
<path d="M1187.83 247.074C1186.46 257.577 1192.95 267.334 1202.33 268.869C1211.71 270.404 1220.43 263.136 1221.8 252.633C1223.18 242.13 1216.68 232.372 1207.3 230.838C1197.92 229.303 1189.2 236.572 1187.83 247.074Z" fill="#383838"/>
<path d="M1194.17 239.413C1193.78 242.414 1195.64 245.202 1198.32 245.64C1201 246.079 1203.49 244.002 1203.88 241C1204.27 238 1202.42 235.212 1199.74 234.774C1197.06 234.335 1194.56 236.412 1194.17 239.413Z" fill="white"/>
<path d="M1171.08 243.967C1169.2 258.379 1157.24 268.353 1144.37 266.247C1131.5 264.142 1122.59 250.751 1124.47 236.341C1126.35 221.929 1138.31 211.955 1151.18 214.061C1164.06 216.167 1172.97 229.556 1171.08 243.967Z" fill="white"/>
<path d="M1159.76 243.955C1158.57 253.071 1151 259.379 1142.86 258.047C1134.72 256.715 1129.08 248.247 1130.27 239.13C1131.46 230.015 1139.03 223.705 1147.17 225.037C1155.31 226.37 1160.95 234.84 1159.76 243.955Z" fill="#383838"/>
<path d="M1144.8 233.319C1144.46 235.924 1142.29 237.726 1139.97 237.346C1137.64 236.965 1136.03 234.545 1136.37 231.94C1136.71 229.336 1138.87 227.534 1141.2 227.914C1143.53 228.295 1145.14 230.714 1144.8 233.319Z" fill="white"/>
<path d="M1131.41 298.855C1131.41 298.855 1150.59 277.009 1175.81 283.173C1175.81 283.173 1199.28 287.601 1210.07 311.724C1210.07 311.724 1210.22 340.216 1195.55 322.77C1195.55 322.77 1188.05 346.934 1180.16 330.127C1180.16 330.127 1169.76 348.645 1165.54 326.323C1165.54 326.323 1152.37 345.329 1150.99 324.413C1150.99 324.413 1130.59 336.581 1138.05 318.057C1138.05 318.057 1121.08 322.809 1133.16 307.388C1133.16 307.387 1121.09 311.021 1131.41 298.855Z" fill="#383838"/>
<path d="M1135.89 293.921C1135.89 293.921 1153.17 274.239 1175.89 279.793C1175.89 279.793 1197.03 283.782 1206.75 305.515C1206.75 305.515 1206.89 331.182 1193.67 315.464C1193.67 315.464 1186.92 337.234 1179.81 322.093C1179.81 322.093 1170.44 338.776 1166.64 318.666C1166.64 318.666 1154.78 335.788 1153.53 316.945C1153.53 316.945 1135.16 327.908 1141.88 311.219C1141.88 311.219 1126.58 315.501 1137.47 301.608C1137.47 301.608 1126.59 304.881 1135.89 293.921Z" fill="white"/>
<path d="M1238.55 201.531C1238.12 198.714 1237.82 195.967 1237.28 194.19C1235.65 188.786 1233.24 181.977 1230.16 177.358C1226.24 181.724 1221.75 186.026 1217.59 190.081C1214.6 192.997 1208.41 195.901 1207.32 200.644C1219.32 203.39 1232.12 206.068 1242.85 211.692C1240.2 210.301 1239.21 205.837 1238.55 201.531Z" fill="#263B80"/>
<path d="M1175.04 279.619C1174.55 279.493 1174.05 279.358 1173.56 279.215C1164.52 276.589 1154.3 270.376 1144.97 275.451C1132.06 282.474 1141.79 289.364 1141.9 298.703C1135.67 297.127 1110.84 291.104 1119.19 306.723C1122.52 312.967 1130.99 314.249 1137.13 316.694C1134.41 317.079 1122.04 320.886 1120.11 323.097C1115.89 327.951 1121.27 332.59 1125.75 335.731C1144.58 348.947 1168.88 328.988 1185.94 320.242C1196.16 315.005 1228.98 298.655 1227.75 284.104C1226.99 275.111 1214.57 281.35 1207.84 281.608C1197.19 282.015 1185.43 282.273 1175.04 279.619Z" fill="#F2B81B"/>
<path d="M1193.94 141.805C1216.99 160.986 1205.09 220.051 1205.08 220.054C1229.02 219.159 1247.6 215.999 1247.6 215.999C1252.1 212.045 1256.21 146.778 1193.94 141.805Z" fill="#536FB5" stroke="#F2B81B" stroke-miterlimit="10"/>
<path d="M1205.1 220.265C1228.77 219.376 1247.46 216.239 1247.65 216.205L1247.7 216.197L1247.75 216.157C1250.19 214.012 1251.93 196.939 1246.45 180.479C1241.04 164.22 1227.54 144.277 1193.96 141.594L1193.3 141.544L1193.81 141.965C1205.64 151.808 1208.03 172.452 1207.95 188.039C1207.87 205.038 1204.92 219.868 1204.89 220.012L1204.83 220.275L1205.1 220.265ZM1246.05 180.613C1251.72 197.633 1249.55 213.82 1247.51 215.803C1246.32 216.003 1228.2 218.962 1205.36 219.835C1206.37 215.167 1216.01 160.843 1194.58 142.068C1227.46 144.933 1240.72 164.58 1246.05 180.613Z" fill="#3D548E" stroke="#F2B81B" stroke-miterlimit="10"/>
<path opacity="0.5" d="M1209.93 144.745C1212.62 147.615 1214.71 151.084 1216.21 154.696C1219.21 161.906 1220.49 170.144 1219.32 177.896C1218.2 185.25 1214.31 192.849 1207.89 196.634C1207.14 209.891 1205.09 220.051 1205.09 220.052C1229.02 219.156 1247.61 215.996 1247.61 215.996C1251.69 212.417 1255.43 158.614 1209.93 144.745Z" fill="#536FB5" stroke="#F2B81B" stroke-miterlimit="10"/>
<path d="M1193.95 141.803C1191.83 141.635 1189.65 141.533 1187.39 141.504C1121.7 140.773 1126.22 208.586 1126.22 208.586C1147.87 219.388 1179.53 221.009 1205.09 220.051C1205.09 220.048 1217 160.984 1193.95 141.803Z" fill="#536FB5" stroke="#F2B81B" stroke-miterlimit="10"/>
<path d="M1205.1 220.26L1205.22 220.255L1205.28 220.149C1205.31 220.094 1208.28 205.128 1208.37 188.118C1208.53 159.664 1200.69 147.137 1194.08 141.641L1194.03 141.6L1193.96 141.591C1191.83 141.421 1189.59 141.318 1187.39 141.295C1168.36 141.083 1153.37 146.613 1142.83 157.73C1124.16 177.43 1125.99 208.289 1126.01 208.6L1126.02 208.72L1126.13 208.773C1138.73 215.065 1155.99 218.866 1177.41 220.075H1177.41C1186.04 220.561 1195.35 220.625 1205.1 220.26ZM1143.14 158.015C1153.59 146.988 1168.47 141.503 1187.38 141.712C1189.56 141.736 1191.76 141.836 1193.86 142.002C1205.65 151.863 1208.03 172.472 1207.95 188.034C1207.87 204.08 1205.24 218.191 1204.92 219.845C1195.24 220.204 1186 220.141 1177.43 219.657C1156.13 218.454 1138.97 214.686 1126.42 208.453C1126.32 206.33 1125.19 176.958 1143.14 158.015Z" fill="#3D548E" stroke="#F2B81B" stroke-miterlimit="10"/>
<path opacity="0.5" d="M1201.31 198.923C1195.57 199.7 1189.91 198.185 1184.64 195.996C1178.58 193.475 1172.79 190.601 1166.36 189.095C1162.93 188.295 1159.44 187.683 1155.92 187.455C1152.47 187.226 1149.08 187.499 1145.65 187.905C1140.86 188.472 1134.48 190.003 1131.15 185.475C1130.3 184.326 1129.87 183.018 1129.7 181.651C1125.38 195.951 1126.22 208.584 1126.22 208.584C1147.87 219.386 1179.53 221.007 1205.09 220.049C1205.1 220.049 1207.14 209.888 1207.89 196.632C1205.93 197.789 1203.74 198.596 1201.31 198.923Z" fill="#536FB5" stroke="#F2B81B" stroke-miterlimit="10"/>
<path opacity="0.5" d="M1221.69 149.746C1224.73 152.318 1227.55 155.187 1229.97 158.323C1232.74 161.915 1234.78 165.891 1236.28 170.08C1237.27 172.228 1238.13 174.434 1238.84 176.686C1240.77 182.742 1242.03 189.071 1242.77 195.38C1243.46 201.282 1243.55 207.141 1243.57 213.073C1243.57 214.253 1243.59 215.435 1243.56 216.613C1246.16 216.241 1247.61 215.994 1247.61 215.994C1251.3 212.757 1254.71 168.451 1221.69 149.746Z" fill="#536FB5" stroke="#F2B81B" stroke-miterlimit="10"/>
<path d="M1098.82 212.052C1101.55 210.733 1104.36 209.721 1107.48 209.203C1113.22 208.255 1119.63 209.719 1124.91 211.942C1129.62 213.931 1134.13 216.834 1138.15 219.966C1138.15 219.966 1154.28 235.008 1174.81 231.353C1192.49 228.202 1205.08 220.053 1205.08 220.053C1205.08 220.053 1186.11 196.251 1153.11 192.764C1153.11 192.764 1138.88 190.609 1126.57 196.137C1114.26 201.663 1090.83 211.502 1091.81 213.31C1092.34 214.292 1093.14 215.194 1094.01 214.673C1095.62 213.72 1097.21 212.833 1098.82 212.052Z" fill="#364A7F" stroke="#F2B81B" stroke-miterlimit="10"/>
<path d="M1174.85 231.556C1192.37 228.435 1205.08 220.309 1205.2 220.226L1205.4 220.101L1205.25 219.918C1205.06 219.68 1185.85 196.01 1153.15 192.555C1153.13 192.552 1151.8 192.354 1149.66 192.233C1144.71 191.953 1135.13 192.063 1126.49 195.942C1124.3 196.926 1121.76 198.046 1119.07 199.231C1103.89 205.915 1092.24 211.174 1091.61 212.999C1091.55 213.187 1091.59 213.324 1091.63 213.407C1092.02 214.122 1092.65 214.988 1093.44 215.033C1093.67 215.047 1093.9 214.984 1094.13 214.852C1095.96 213.762 1097.49 212.933 1098.92 212.241C1101.94 210.779 1104.67 209.88 1107.52 209.409C1109.14 209.141 1110.89 209.056 1112.72 209.16C1117.55 209.433 1121.97 210.928 1124.84 212.135C1129.06 213.915 1133.49 216.605 1138.01 220.117C1138.13 220.229 1150.03 231.16 1166.15 232.07C1169.08 232.234 1172 232.062 1174.85 231.556ZM1107.46 208.995C1104.57 209.473 1101.79 210.382 1098.73 211.864C1097.29 212.56 1095.76 213.395 1093.91 214.491C1093.76 214.582 1093.61 214.619 1093.46 214.611C1093 214.584 1092.48 214.088 1092 213.207C1091.99 213.191 1092 213.156 1092.01 213.134C1092.62 211.339 1108.01 204.562 1119.24 199.614C1121.93 198.428 1124.47 197.306 1126.66 196.324C1135.22 192.484 1144.73 192.373 1149.63 192.651C1151.76 192.77 1153.07 192.964 1153.09 192.969C1184.1 196.245 1202.92 217.79 1204.77 219.999C1203.09 221.04 1191.02 228.25 1174.78 231.142C1171.96 231.643 1169.07 231.814 1166.18 231.65C1150.21 230.748 1138.42 219.92 1138.29 219.799C1133.73 216.25 1129.26 213.541 1125 211.747C1122.11 210.525 1117.63 209.016 1112.74 208.74C1110.88 208.635 1109.1 208.72 1107.46 208.995Z" fill="#3D548E" stroke="#F2B81B" stroke-miterlimit="10"/>
<path d="M1098.59 210.69C1098.59 210.69 1114.13 199.479 1138.26 218.25C1138.26 218.25 1154.39 233.291 1174.92 229.634C1192.59 226.484 1205.09 220.055 1205.09 220.055C1205.09 220.055 1186.22 194.534 1153.22 191.048C1153.22 191.048 1138.99 188.889 1126.68 194.417C1114.37 199.946 1090.6 211.061 1091.58 212.873C1092.57 214.684 1092.15 214.354 1098.59 210.69Z" fill="#536FB5" stroke="#F2B81B" stroke-miterlimit="10"/>
<path d="M1174.95 229.836C1192.46 226.718 1205.06 220.303 1205.19 220.238L1205.41 220.124L1205.26 219.925C1205.22 219.863 1200.43 213.445 1191.66 206.687C1183.57 200.454 1170.34 192.638 1153.25 190.836C1153.24 190.833 1151.91 190.636 1149.76 190.514C1144.81 190.235 1135.23 190.343 1126.6 194.222C1118.57 197.827 1092.31 209.799 1091.38 212.556C1091.32 212.746 1091.36 212.885 1091.4 212.968L1091.48 213.114C1091.81 213.719 1092.02 214.119 1092.51 214.147C1093.04 214.177 1093.81 213.727 1095.66 212.634C1096.45 212.165 1097.44 211.579 1098.71 210.854C1098.76 210.819 1104.02 207.116 1112.97 207.621C1121.05 208.077 1129.51 211.706 1138.12 218.4C1138.24 218.51 1150.14 229.442 1166.26 230.352C1169.18 230.517 1172.11 230.345 1174.95 229.836ZM1098.49 210.504C1097.23 211.218 1096.24 211.804 1095.44 212.275C1093.77 213.257 1092.94 213.753 1092.53 213.731C1092.29 213.717 1092.16 213.486 1091.85 212.915L1091.77 212.771C1091.76 212.751 1091.77 212.708 1091.78 212.69C1092.48 210.624 1111.07 201.659 1126.77 194.604C1135.32 190.765 1144.83 190.653 1149.74 190.929C1151.86 191.05 1153.18 191.248 1153.2 191.251C1184.19 194.524 1202.91 217.587 1204.77 219.977C1203.01 220.847 1191.05 226.543 1174.88 229.422C1172.07 229.924 1169.17 230.097 1166.28 229.933C1150.31 229.032 1138.52 218.201 1138.39 218.08C1129.71 211.322 1121.16 207.664 1112.99 207.203C1103.88 206.689 1098.52 210.477 1098.49 210.504Z" fill="#3D548E" stroke="#F2B81B" stroke-miterlimit="10"/>
<path opacity="0.5" d="M1167.25 193.986C1168.73 194.516 1170.19 195.136 1171.53 195.958C1172.97 196.835 1174.52 198.013 1175.1 199.666C1176.06 202.409 1173.75 204.795 1171.72 206.296C1168.8 208.457 1165.42 209.986 1162.05 211.291C1158.35 212.719 1154.44 214.148 1150.5 214.632C1147.51 214.998 1144.65 214.697 1141.82 213.636C1138.76 212.487 1135.76 211.198 1132.72 210.002C1127.84 208.085 1123.01 206.699 1117.76 206.39C1108.94 205.873 1098.82 207.508 1092.22 213.827C1092.82 214.267 1093.84 213.379 1098.58 210.682C1098.58 210.682 1114.12 199.471 1138.26 218.243C1138.26 218.243 1154.38 233.283 1174.91 229.627C1192.59 226.476 1205.09 220.047 1205.09 220.047C1205.09 220.047 1191.51 201.689 1167.25 193.986Z" fill="#536FB5" stroke="#F2B81B" stroke-miterlimit="10"/>
<path opacity="0.5" d="M1197.51 211.921C1198.19 213.201 1198.57 214.579 1198.26 215.942C1197.5 219.317 1193.05 220.794 1190.22 221.866C1185.69 223.582 1181.13 225.269 1176.35 226.182C1170.44 227.317 1164.35 227.305 1158.56 225.563C1152.72 223.801 1147.51 220.642 1142.24 217.639C1137.05 214.675 1131.71 212.057 1125.88 210.69C1129.69 212.371 1133.83 214.801 1138.26 218.245C1138.26 218.245 1154.38 233.286 1174.91 229.629C1192.59 226.479 1205.09 220.05 1205.09 220.05C1205.09 220.05 1202.48 216.527 1197.51 211.921Z" fill="#536FB5" stroke="#F2B81B" stroke-miterlimit="10"/>
<path opacity="0.7" d="M1104.94 206.299C1110.74 204.837 1116.84 204.938 1122.58 203.213C1128.03 201.572 1132.45 197.916 1137.54 195.522C1142.46 193.212 1148.03 192.341 1153.45 192.313C1154.26 192.308 1155.07 192.323 1155.88 192.356C1155.25 192.273 1154.61 192.195 1153.97 192.126C1153.97 192.126 1140.28 190.081 1128.44 195.277C1121.84 198.175 1111.81 202.709 1104.4 206.447C1104.58 206.399 1104.76 206.344 1104.94 206.299Z" fill="#536FB5" stroke="#F2B81B" stroke-miterlimit="10"/>
<path opacity="0.7" d="M1131.2 180.704C1131.2 180.704 1141.71 140.658 1188.93 142.781C1188.93 142.781 1151.83 139.229 1131.2 180.704Z" fill="#536FB5"/>
<path d="M134.96 379.474L131.33 376.031L131.432 366.654C131.446 365.394 130.436 364.361 129.175 364.347C127.916 364.333 126.883 365.344 126.869 366.604L126.77 375.633C126.555 375.753 126.355 375.906 126.186 376.104L122.872 379.975C122.107 380.869 122.211 382.213 123.105 382.979C123.998 383.744 125.343 383.64 126.108 382.746L127.069 381.624L127.059 382.578C127.046 383.755 127.989 384.719 129.165 384.732C130.341 384.745 131.305 383.802 131.318 382.625L131.326 381.898L132.028 382.564C132.882 383.374 134.23 383.339 135.039 382.484C135.849 381.632 135.813 380.283 134.96 379.474Z" fill="#EA7624"/>
<path d="M162.184 379.771L158.555 376.328L158.657 366.952C158.671 365.691 157.662 364.658 156.4 364.645C155.141 364.631 154.107 365.641 154.093 366.901L153.995 375.931C153.781 376.05 153.581 376.203 153.411 376.402L150.096 380.272C149.332 381.166 149.436 382.511 150.329 383.276C151.223 384.041 152.567 383.937 153.332 383.044L154.294 381.921L154.283 382.876C154.27 384.052 155.214 385.016 156.389 385.029C157.566 385.042 158.531 384.099 158.543 382.922L158.551 382.195L159.253 382.862C160.106 383.671 161.455 383.636 162.264 382.781C163.075 381.929 163.038 380.58 162.184 379.771Z" fill="#EA7624"/>
<path d="M203.95 243.165C201.072 242.028 188.839 255.338 188.839 255.338C174.243 250.072 161.744 248.417 151.559 248.551C141.374 248.417 128.875 250.072 114.279 255.338C114.279 255.338 102.045 242.029 99.1667 243.165C96.2886 244.301 81.6565 322.276 109.002 354.426C120.177 367.565 135.387 371.712 151.559 371.584C167.289 371.712 182.942 367.565 194.116 354.426C221.461 322.276 206.829 244.302 203.95 243.165Z" fill="#263B80"/>
<path d="M178.098 260.797C153.787 274.881 153.083 279.808 125.03 260.797C112.555 252.343 97.7454 273.015 97.7454 288.088C97.7454 303.161 109.961 315.38 125.03 315.38C137.911 315.38 148.7 306.45 151.564 294.445C154.429 306.45 165.216 315.38 178.098 315.38C193.167 315.38 205.382 303.161 205.382 288.088C205.382 273.015 191.137 253.242 178.098 260.797Z" fill="#F2B81B"/>
<path d="M144.41 296.012L151.56 305.888V289.228L144.41 296.012Z" fill="#CA7B33"/>
<path d="M151.56 289.228V305.888L158.71 296.012L151.56 289.228Z" fill="#F58223"/>
<path d="M186.785 361.604C187.585 358.683 188.016 355.615 188.016 352.448C188.016 332.837 171.694 316.939 151.56 316.939C131.426 316.939 115.103 332.837 115.103 352.448C115.103 355.631 115.539 358.712 116.345 361.647C126.445 369.327 138.696 371.935 151.559 371.834C164.094 371.936 176.576 369.318 186.785 361.604Z" fill="#CBB7B1"/>
<path d="M179.05 308.977C189.955 308.977 198.794 300.135 198.794 289.229C198.794 278.322 189.955 269.48 179.05 269.48C168.146 269.48 159.306 278.322 159.306 289.229C159.306 300.135 168.146 308.977 179.05 308.977Z" fill="white"/>
<path d="M176.555 303.505C183.452 303.505 189.044 297.912 189.044 291.013C189.044 284.114 183.452 278.521 176.555 278.521C169.657 278.521 164.066 284.114 164.066 291.013C164.066 297.912 169.657 303.505 176.555 303.505Z" fill="#383838"/>
<path d="M181.19 288.515C183.16 288.515 184.758 286.917 184.758 284.946C184.758 282.975 183.16 281.377 181.19 281.377C179.219 281.377 177.621 282.975 177.621 284.946C177.621 286.917 179.219 288.515 181.19 288.515Z" fill="white"/>
<path d="M123.689 308.975C134.592 308.975 143.431 300.134 143.431 289.228C143.431 278.321 134.592 269.48 123.689 269.48C112.785 269.48 103.946 278.321 103.946 289.228C103.946 300.134 112.785 308.975 123.689 308.975Z" fill="white"/>
<path d="M126.188 303.506C133.085 303.506 138.676 297.914 138.676 291.015C138.676 284.116 133.085 278.523 126.188 278.523C119.291 278.523 113.699 284.116 113.699 291.015C113.699 297.914 119.291 303.506 126.188 303.506Z" fill="#383838"/>
<path d="M125.121 284.946C125.121 286.917 123.522 288.515 121.552 288.515C119.582 288.515 117.985 286.917 117.985 284.946C117.985 282.975 119.583 281.377 121.552 281.377C123.522 281.377 125.121 282.975 125.121 284.946Z" fill="white"/>
<path d="M118.36 336.493C118.36 336.493 131.9 317.98 153.485 319.489C153.485 319.489 173.429 319.925 184.989 336.493C184.989 336.493 188.199 357.586 174.145 346.437C174.145 346.437 170.541 365.252 162.181 353.754C162.181 353.754 155.562 368.736 149.64 352.708C149.64 352.708 140.778 368.388 137.371 353.056C137.371 353.056 121.771 364.546 125.951 349.916C125.951 349.916 112.385 355.495 120.736 342.603C120.735 342.603 111.117 346.758 118.36 336.493Z" fill="#383838"/>
<path d="M121.545 332.297C121.545 332.297 133.744 315.619 153.188 316.98C153.188 316.98 171.155 317.371 181.57 332.297C181.57 332.297 184.461 351.3 171.8 341.255C171.8 341.255 168.554 358.205 161.022 347.847C161.022 347.847 155.06 361.344 149.724 346.905C149.724 346.905 141.741 361.03 138.671 347.218C138.671 347.218 124.618 357.569 128.384 344.389C128.384 344.389 116.163 349.415 123.686 337.801C123.685 337.802 115.02 341.545 121.545 332.297Z" fill="white"/>
<path d="M230.656 249.2C233.082 248.212 237.094 249.464 239.467 252.667C242.864 257.253 240.505 268.928 239.638 273.104C235.627 292.417 224.965 306.246 206.413 314.57C208.076 313.824 205.208 291.502 205.387 288.939C205.792 283.129 207.298 254.939 220.149 263.063C217.741 259.84 216.144 253.465 217.883 250.327C220.227 246.097 227.789 248.64 228.721 253.594C228.279 251.247 229.17 249.805 230.656 249.2Z" fill="#F2B81B"/>
<path d="M51.1366 257.803C48.4449 258.081 45.1475 261.29 44.1815 265.536C42.7981 271.616 49.6958 281.56 52.1855 285.105C63.6976 301.499 79.3145 309.322 100.2 307.932C98.3288 308.057 92.1251 285.336 90.9316 282.984C88.2269 277.648 75.5386 251.533 66.6199 265.737C67.612 261.454 66.5761 254.574 63.6767 252.457C59.7678 249.603 53.6271 255.828 54.7233 261.019C54.2032 258.559 52.7833 257.633 51.1366 257.803Z" fill="#F2B81B"/>
<path d="M93.2078 274.093C99.1409 281.112 105.669 277.014 112.472 274.3C121.344 270.76 129.278 274.699 138.122 275.009C136 274.935 131.17 270.979 128.568 270.265C122.258 268.535 118.798 268.116 112.823 270.239C106.843 272.366 99.8117 276.689 93.2078 274.093Z" fill="#1E1E1E"/>
<path d="M204.897 274.093C198.964 281.112 192.436 277.014 185.633 274.3C176.761 270.76 168.827 274.699 159.982 275.009C162.104 274.935 166.935 270.979 169.537 270.265C175.846 268.535 179.307 268.116 185.282 270.239C191.262 272.366 198.293 276.689 204.897 274.093Z" fill="#1E1E1E"/>
<path d="M206.616 253.266C198.844 251.779 190.539 251.923 182.697 252.483C162.597 253.916 143.346 257.591 123.641 261.699C115.22 263.454 104.993 263.339 97.2277 267.11C96.4712 267.477 95.7663 267.826 95.2012 268.376L94.5234 270.24C99.5772 269.925 99.17 271.502 104.219 271.581C113.967 271.733 130.601 273.284 140.208 271.345C170.273 265.278 177.725 266.506 186.212 265.761C200.703 264.488 206.995 264.402 210.609 259.013C212.981 255.476 210.143 253.94 206.616 253.266Z" fill="#D99B35"/>
<path d="M237.89 238.849C235.74 229.727 225.42 224.512 216.689 223.664C206.935 222.716 185.157 224.199 175.8 226.448C163.85 229.32 162.301 235.843 150.048 233.541L140.331 231.035C151.645 224.134 106.155 231.084 97.9973 232.401C90.7098 233.578 81.8514 236.551 76.6997 242.352C71.0493 248.715 71.2297 257.408 77.0565 262.745C87.5836 272.386 104.518 272.444 118.172 270.757C132.891 268.939 138.315 266.268 147.037 263.514C152.111 261.912 161.059 258.76 166.355 258.392C176.645 257.677 178.888 262.283 190.327 263.361C200.739 264.341 209.484 262.959 214.759 261.714C225.615 259.152 241.114 252.528 237.89 238.849Z" fill="#F6BC47"/>
<path d="M125.687 241.598C125.687 241.598 122.637 211.837 153.654 209.161C185.275 206.432 188.359 239.362 188.359 239.362C188.359 239.362 187.098 247.934 158.624 250.178C128.566 252.549 125.687 241.598 125.687 241.598Z" fill="#D99B35"/>
<path d="M238.24 240.858C237.38 243.327 235.821 241.428 233.288 244.586C231.574 246.724 229.973 248.618 228.888 251.058C226.244 257.003 222.527 258.773 216.906 260.977L211.41 262.341C220.183 261.501 229.029 256.756 232.7 253.461C235.282 251.143 239.266 248.186 238.24 240.858Z" fill="#D99B35"/>
<path d="M152.681 212.741C150.816 211.729 148.533 212.26 146.537 212.788C144.957 213.206 143.4 213.469 141.955 214.308C141.893 214.345 141.836 214.382 141.776 214.419C138.571 215.93 135.668 218.226 133.844 220.975C132.06 223.663 129.313 229.46 130.747 232.742C132.114 235.87 136.842 235.581 138.941 233.583C141.465 231.18 141.055 227.193 142.797 224.332C143.807 222.672 144.928 220.913 146.582 219.849C148.107 218.868 149.878 218.417 151.387 217.401C153.184 216.19 155.559 214.303 152.681 212.741Z" fill="#F6BC47"/>
<path d="M121.005 235.028C119.087 228.691 100.107 233.141 95.9875 234.638C87.6714 237.659 79.2994 241.864 77.5272 251.366C76.7545 255.506 79.4993 258.371 83.5075 259.449C83.7464 259.513 84.0468 259.578 84.3947 259.642C84.8718 259.958 85.3831 260.261 85.9327 260.547C92.3795 263.906 99.4053 263.585 106.525 263.344C109.801 263.234 119.894 264.59 117.947 258.838C116.417 254.317 111.169 251.815 112.487 246.232C113.112 243.585 115.254 241.313 117.336 239.717C118.927 238.497 121.786 237.61 121.005 235.028Z" fill="#F5CC57"/>
<path d="M235.194 233.872C230.372 231.045 223.225 231.431 217.819 231.513C212.256 231.597 207.507 232.846 202.292 234.719C197.954 236.278 193.698 237.722 189.259 238.814C188.02 239.118 186.512 239.304 185.623 240.356C185.214 240.84 186.35 242.989 186.244 242.906L185.472 243.667C186.584 247.255 195.055 243.267 197.15 242.534C202.122 240.793 206.809 239.206 211.989 238.291C216.919 237.42 221.74 236.873 226.795 236.813C228.809 236.789 231.022 236.907 232.89 237.627C234.615 238.292 236.261 239.058 238.001 239.355C237.995 237.169 237.168 235.029 235.194 233.872Z" fill="#D99B35"/>
<path d="M247.491 233.457C249.276 233.353 252.306 233.125 253.797 232.076C246.52 232.696 239.626 230.086 232.403 229.353C222.919 228.39 213.12 229.169 203.974 231.807C197.397 233.705 190.711 237.506 183.854 237.298L182.304 242.12C185.401 243.906 192.863 241.839 196.139 241.129C200.125 240.263 203.769 238.339 207.551 236.862C211.437 235.343 215.314 234.583 219.424 234.092C224.916 233.436 230.337 234.438 235.692 235.606C241.222 236.812 246.869 236.558 252.419 235.858C253.483 235.723 254.519 235.551 255.558 235.377C253.342 235.638 249.454 234.529 247.491 233.457Z" fill="#EF3C26"/>
<path d="M221.964 230.848C221.25 229.688 218.059 229.785 216.914 229.811C216.117 229.829 215.329 229.902 214.552 230.023C213.243 229.468 209.545 231.276 208.681 231.712C206.789 232.666 204.753 233.185 202.829 233.975C201.633 234.466 198.697 237.712 201.107 238.102C202.407 238.313 203.993 237.088 205.094 236.528C206.454 235.836 207.877 235.298 209.372 234.964C210.778 234.649 223.434 233.236 221.964 230.848Z" fill="#F15A37"/>
<path d="M175.28 247.912C174.042 252.284 182.24 253.02 184.875 253.344C189.42 253.902 194.458 253.956 198.591 256.106C201.224 257.475 204.343 260.212 204.646 263.294C205.944 263.283 207.37 262.937 208.698 262.777C208.562 259.954 206.275 255.943 204.344 254.029C201.453 251.165 197.263 249.936 193.333 249.574C187.88 249.072 182.342 249.487 176.99 248.761C176.441 248.687 175.541 248.326 175.329 248.616L175.28 247.912Z" fill="#D99B35"/>
<path d="M232.831 272.525C230.236 269.98 226.819 268.025 223.918 265.746C221.272 263.668 219.117 261.297 217.257 258.487C215.499 255.831 214.08 253.306 211.684 251.156C205.527 245.63 198.516 246.462 190.981 246.224C189.106 246.165 187.549 245.715 185.902 244.81C185.068 244.352 182.593 241.858 182.143 243.192L174.858 246.88C174.829 250.037 179.835 250.895 182.07 251.093C186.328 251.47 190.712 251.382 194.889 252.349C202.554 254.123 206.257 261.465 210.328 267.383C212.562 270.631 215.066 272.856 218.937 274.011C222.167 274.975 225.526 275.69 228.547 277.195C228.432 275.674 227.034 273.525 226.382 272.163C228.486 272.055 230.703 272.573 232.831 272.525Z" fill="#EF3C26"/>
<path d="M190.441 250.744C192.271 251.315 194.533 250.827 196.267 250.192C198.354 249.427 200.564 249.761 202.703 249.184C203.476 248.976 204.734 248.198 203.843 247.364C203.325 246.879 201.89 247.291 201.28 247.395C199.287 247.735 197.326 247.344 195.279 247.462C192.343 247.631 189.267 248.058 186.995 250.071C188.191 251.046 190.52 250.922 191.997 251.107L190.441 250.744Z" fill="#F15A37"/>
<path d="M213.335 269.895C215.448 271.091 217.143 272.16 219.555 272.55C221.079 272.796 220.852 272.578 221.729 271.58C222.366 270.856 223.411 270.629 224.335 270.424C224.975 270.281 226.875 270.47 227.373 270.1C228.306 269.409 226.438 268.502 225.821 268.061C224.216 266.914 223.004 264.945 220.962 266.094C219.485 266.926 218.368 267.964 216.64 268.277C215.436 268.495 214.146 268.491 212.916 268.649C212.015 270.983 218.161 271.564 219.001 271.74L213.335 269.895Z" fill="#F15A37"/>
<path d="M183.597 233.838C181.362 228.649 178.062 223.377 173.855 219.534C170.695 216.646 167.569 214.958 163.487 214.222C163.448 214.406 163.508 214.548 163.492 214.729L164.948 215.336C169.634 217.554 171.96 223.715 173.633 228.334C174.539 230.836 175.121 233.371 175.573 235.986C176.025 238.597 175.605 240.997 175.776 243.551C178.224 242.918 180.475 241.428 182.805 240.296C184.378 239.531 184.805 239.566 184.702 237.65C184.63 236.332 184.124 235.06 183.597 233.838Z" fill="#C98D32"/>
<path d="M125.75 235.443C125.75 235.443 136.764 244.771 157.075 241.986C186.72 237.922 186.531 231.807 186.531 231.807L188.357 239.361C188.357 239.361 187.822 248.687 158.507 250.725C124.854 253.065 125.26 241.959 125.26 241.959L125.75 235.443Z" fill="#EF3C26"/>
<path d="M129.05 238.867C127.218 236.757 126.663 241.514 126.821 242.442C127.221 244.789 128.424 245.994 130.672 247.03C133.277 248.23 136.316 249.715 139.265 248.91C141.348 248.341 142.033 245.971 140.824 244.176C139.92 242.833 137.907 242.726 136.48 242.357C134.883 241.944 133.419 241.37 132.025 240.516C131.109 239.956 129.883 238.763 128.899 238.406C126.959 237.701 126.164 240.418 127.135 241.829L129.05 238.867Z" fill="#F15A37"/>
<path d="M94.6863 287.705C97.8987 294.625 96.4559 302.923 101.756 308.986C106.534 314.452 114.393 315.064 121.166 315.483C131.835 316.142 141.849 316.775 152.813 316.775C163.695 316.775 174.405 316.248 184.958 314.694C192.211 313.625 198.466 313.397 201.72 306.525C205.186 299.205 202.579 288.74 204.59 280.715C205.034 280.7 205.492 280.469 205.805 280.213C209.478 290.452 209.749 304.422 210.598 315.245C211.814 330.757 202.548 346.163 192.242 356.972C179.84 369.98 159.029 378.48 141.19 373.118C126.361 368.661 110.509 362.043 101.969 348.894C96.4235 340.353 89.9727 327.703 91.0528 317.238C91.7538 310.444 90.9196 296.427 94.0671 289.958" fill="#EF3C26"/>
<path opacity="0.4" d="M197.966 338.734C194.594 346.478 191.635 354.796 181.975 356.098C181.425 352.04 187.317 343.313 188.825 339.239C190.139 335.685 193.214 328.492 197.228 327.207C206.251 324.317 199.211 335.875 197.966 338.734Z" fill="#FCD9D7"/>
</svg>
