<svg width="192" height="192" viewBox="0 0 192 192" fill="none" xmlns="http://www.w3.org/2000/svg">
<path d="M13.3468 156.686C13.3468 168.176 60.5584 164.715 65.8049 163.628C72.2301 162.298 77.2565 160.049 83.8844 161.706C89.5567 163.124 95.3029 164.964 100.811 163.025C106.178 161.136 111.387 162.117 116.582 163.843C122.156 165.694 128.449 166.246 134.43 167.049C144.312 168.375 156.425 165.547 166.26 164.051C169.288 163.59 187.251 162.088 187.25 156.686C187.25 150.444 148.32 145.384 100.299 145.384C52.2765 145.384 13.3468 150.444 13.3468 156.686Z" fill="#CFD1D2"/>
<path d="M150.761 94.8955C150.761 94.8955 148.152 95.5822 147.85 102.431C147.549 109.28 149.117 113.03 148.448 114.072C147.779 115.115 142.257 115.645 141.868 115.876C141.479 116.106 141.768 120.722 143.18 121.338C144.593 121.952 153.418 120.592 154.95 118.77C156.482 116.947 155.535 101.909 154.548 98.9444C153.559 95.9799 152.982 94.4395 150.761 94.8955Z" fill="#4571FF"/>
<path d="M147.5 149.786C147.5 149.786 140.757 155.857 141.238 156.964C141.719 158.07 152.682 155.857 152.874 154.247C153.067 152.637 151.624 148.41 151.624 148.41L147.5 149.786Z" fill="#11161F"/>
<path d="M162.942 126.553C162.942 126.553 162.82 126.509 162.594 126.429C159.933 125.497 142.866 119.723 139.763 123.843C136.397 128.314 146.756 150.13 146.756 150.13C146.756 150.13 152.583 149.453 152.583 148.098C152.583 146.742 149.346 134.547 149.346 134.547C149.346 134.547 156.856 140.239 162.942 139.29C169.028 138.341 174.208 131.295 173.172 129.127C172.136 126.959 162.942 126.553 162.942 126.553Z" fill="#11161F"/>
<path d="M173.147 145.747C173.147 145.747 177.007 144.385 177.724 144.996C178.443 145.607 179.834 152.65 179.295 154.199C178.756 155.748 175.167 157.345 174.718 156.406C174.269 155.467 175.346 154.763 175.301 153.589C175.256 152.415 174.179 150.443 173.91 149.832C173.641 149.222 173.147 145.747 173.147 145.747Z" fill="#11161F"/>
<path d="M175.245 126.689C175.245 126.689 176.799 130.347 174.727 134.819C172.655 139.29 159.058 148.775 159.058 148.775C159.058 148.775 172.525 144.575 173.302 145.388C174.08 146.201 175.245 149.046 174.468 150.943C174.468 150.943 158.8 157.989 153.361 158.261C147.922 158.532 145.203 154.06 147.404 149.182C149.606 144.304 157.246 129.399 159.447 126.553C161.649 123.707 175.245 126.689 175.245 126.689Z" fill="#141A27"/>
<path d="M166.13 94.6057C166.13 94.6057 163.59 91.0551 156.681 91.8702C149.772 92.6857 148.479 97.3247 148.55 100.779C148.621 104.233 149.406 108.079 153.076 126.635C153.726 129.92 177.564 131.811 175.989 126.934C170.689 110.522 170.131 100.571 166.13 94.6057Z" fill="#5E91FF"/>
<path d="M150.758 91.8195C150.758 91.8195 152.065 93.562 152.169 94.5196C152.273 95.4775 149.635 98.2528 151.469 99.0993C153.303 99.9458 158.171 94.1831 158.066 93.0122C157.962 91.8413 156.53 92.7888 154.822 88.8438C152.702 83.9484 148.881 89.9937 150.758 91.8195Z" fill="#D89A88"/>
<path d="M153.696 83.9288C153.696 83.9288 156.404 88.2378 153.533 92.4791C150.889 96.3855 148.572 96.5329 147.035 95.3201C145.499 94.1069 141.758 89.331 141.67 86.0384C141.582 82.7458 144.879 79.5547 148.687 79.8755C152.496 80.1963 153.696 83.9288 153.696 83.9288Z" fill="#D89A88"/>
<path d="M141.92 81.5089C139.778 82.291 138.141 85.7281 139.572 87.5713C140.361 88.5876 142.275 88.4842 143.474 87.9847C145.893 86.9768 147.76 83.6479 148.449 84.2404C149.138 84.8329 148.914 86.6692 150.035 86.7445C151.157 86.8198 151.169 86.7896 151.618 87.2577C152.068 87.7259 152.517 88.0374 152.307 87.3809C152.096 86.7248 151.689 85.4588 152.675 85.4246C153.661 85.3904 153.607 87.393 153.832 87.783C154.057 88.1735 154.478 88.8606 154.821 88.8441C155.165 88.8271 156.133 83.2075 154.541 80.7405C152.95 78.2738 151.476 79.3478 151.476 79.3478C151.476 79.3478 148.539 76.5144 146.064 79.064C144.535 80.6382 143.503 80.9313 141.92 81.5089Z" fill="#182235"/>
<path d="M145.987 133.135L162.275 130.713L165.326 110.804L149.039 113.225L145.987 133.135Z" fill="#C98F38"/>
<path d="M145.987 133.135L126.069 124.636L129.12 104.727L149.039 113.225L145.987 133.135Z" fill="#EEBE5E"/>
<path d="M165.326 110.804L149.039 113.225L129.12 104.727L145.898 103.235L165.326 110.804Z" fill="#DCA449"/>
<path d="M139.878 103.767L159.055 111.736L155.599 112.25L136.092 104.107L139.878 103.767Z" fill="#B7986E"/>
<path d="M159.055 111.736L157.8 119.929L157.492 119.877L157.201 120.171L156.914 119.909L156.37 120.246L155.964 119.963L155.772 120.145L155.324 119.856L154.63 120.382L154.434 120.235L155.599 112.25L159.055 111.736Z" fill="#B7986E"/>
<path d="M163.552 114.246C163.552 114.246 159.951 118.041 158.887 118.559C157.822 119.077 156.266 118.267 154.961 118.888C153.657 119.51 152.116 120.02 152.109 120.448C152.103 120.876 152.882 121.21 153.705 120.866C153.705 120.866 155.078 120.246 155.207 120.747C155.336 121.249 153.512 122.397 152.585 122.917C151.657 123.437 150.151 123.841 150.385 124.166C150.619 124.491 152.053 124.3 153.287 123.82C153.287 123.82 151.334 124.538 150.752 124.708C150.17 124.877 150.502 125.453 151.492 125.361C152.482 125.27 153.749 124.898 153.749 124.898C153.749 124.898 151.864 125.581 151.812 125.67C151.759 125.758 151.462 126.271 152.401 126.196C153.339 126.122 154.622 125.804 154.622 125.804C154.622 125.804 152.841 126.382 153.076 126.635C153.311 126.888 154.811 126.877 155.446 126.584C156.08 126.29 157.545 125.226 158.689 123.96C159.832 122.694 160.459 121.776 161.184 121.146C161.909 120.516 166.589 117.523 166.589 117.523L163.552 114.246Z" fill="#D89A88"/>
<path d="M160.301 92.8228C160.301 92.8228 157.612 94.6554 158.487 98.1058C159.361 101.556 167.662 107.882 167.7 108.712C167.738 109.542 161.122 115.121 161.395 115.856C161.667 116.591 163.484 119.974 164.373 119.42C165.567 118.675 176.638 111.927 175.296 108.667C173.805 105.047 165.969 94.4815 164.993 93.4938C162.751 91.2248 160.301 92.8228 160.301 92.8228Z" fill="#4571FF"/>
<path d="M5.4295 156.115C5.4295 157.528 10.3594 158.673 16.4418 158.673C22.5223 158.673 27.4526 157.528 27.4526 156.115C27.4526 154.702 22.5223 153.557 16.4418 153.557C10.3594 153.558 5.4295 154.703 5.4295 156.115Z" fill="#BDCCD6"/>
<path d="M13.6294 140.056C13.6294 140.056 13.9598 137.017 12.0565 131.319C10.1531 125.622 9.37341 121.905 9.77309 118.52C10.1735 115.135 10.0181 108.301 7.4593 103.11C7.45968 103.11 0.0824682 120.741 13.6294 140.056Z" fill="#365E61"/>
<path d="M7.45938 103.11C7.74019 103.679 7.99022 104.269 8.21487 104.87C6.83198 109.864 4.62975 122.871 13.4817 137.203C13.7345 139.081 13.6291 140.056 13.6291 140.056C0.0822042 120.741 7.45938 103.11 7.45938 103.11Z" fill="#B2C1CC"/>
<path d="M20.0377 141.14C20.0377 141.14 19.7423 138.091 21.9211 132.316C24.0994 126.544 25.0192 122.789 24.6561 119.394C24.2941 115.998 24.6034 109.121 27.4795 103.844C27.4792 103.844 35.0979 121.408 20.0377 141.14Z" fill="#365E61"/>
<path d="M27.4792 103.844C27.1638 104.422 26.8811 105.021 26.6249 105.631C28.0186 110.621 30.1319 123.653 20.2551 138.268C19.9424 140.163 20.0374 141.14 20.0374 141.14C35.098 121.408 27.4792 103.844 27.4792 103.844Z" fill="#B2C1CC"/>
<path d="M18.0261 143.969C18.0261 143.969 17.3175 142.026 17.8487 140.268C18.3799 138.51 18.7335 134.992 17.6722 132.215C16.6105 129.44 16.4331 118.981 19.087 111.762C21.7404 104.543 18.9989 103.155 17.8487 101.304C16.6986 99.4535 17.1028 112.525 15.5488 117.13C12.8957 124.997 15.166 131.777 14.6648 135.919C13.8682 142.488 18.0261 143.969 18.0261 143.969Z" fill="#66997E"/>
<path d="M15.5492 117.129C17.1029 112.524 16.6986 99.4525 17.8492 101.303C18.013 101.567 18.2104 101.823 18.4185 102.086C18.0788 106.01 17.9165 113.41 16.8763 116.726C14.2225 125.179 16.4928 132.464 15.9916 136.914C15.6404 140.025 16.2524 142.074 17.0452 143.394C15.8708 142.497 14.1236 140.384 14.6649 135.918C15.1661 131.777 12.8958 124.996 15.5492 117.129Z" fill="#A5B4C5"/>
<path d="M18.6343 139.008C18.6343 139.008 19.3955 137.84 19.3105 136.589C19.2263 135.338 19.524 132.955 20.6457 131.294C21.7674 129.635 23.4646 122.748 22.8018 117.535C22.1382 112.322 24.1616 111.858 25.2013 110.824C26.2418 109.791 23.9989 118.368 24.3304 121.671C24.8947 127.312 22.3679 131.419 22.0744 134.24C21.6074 138.717 18.6343 139.008 18.6343 139.008Z" fill="#66997E"/>
<path d="M24.3314 121.671C23.9998 118.368 26.2428 109.791 25.2023 110.824C25.0538 110.972 24.8857 111.108 24.7072 111.248C24.3391 113.899 23.3278 118.818 23.5148 121.183C23.991 127.213 21.3879 131.654 21.0471 134.678C20.8086 136.795 20.0943 138.049 19.3707 138.789C20.2835 138.392 21.7576 137.283 22.0753 134.24C22.3688 131.418 24.8953 127.312 24.3314 121.671Z" fill="#A5B4C5"/>
<path d="M15.4144 138.387C15.4144 138.387 14.8759 137.091 15.1817 135.879C15.4894 134.667 15.621 132.266 14.8159 130.417C14.0096 128.567 13.5699 121.47 15.1502 116.478C16.7319 111.486 14.827 110.636 13.9885 109.417C13.1522 108.199 13.8261 117.063 12.9122 120.242C11.3504 125.674 13.0995 130.202 12.8864 133.032C12.5463 137.52 15.4144 138.387 15.4144 138.387Z" fill="#66997E"/>
<path d="M12.9119 120.241C13.8258 117.062 13.1519 108.198 13.9882 109.416C14.1089 109.59 14.2497 109.757 14.4001 109.929C14.2901 112.605 14.4059 117.636 13.7997 119.923C12.2564 125.752 14.0216 130.624 13.8178 133.663C13.6747 135.788 14.152 137.16 14.731 138.029C13.9058 137.46 12.6553 136.083 12.8857 133.031C13.0992 130.201 11.3501 125.673 12.9119 120.241Z" fill="#A5B4C5"/>
<path d="M15.3991 139.721C15.3991 139.721 17.1094 137.147 17.569 132.477C18.028 127.808 17.9029 126.821 20.0552 123.278C22.2085 119.734 23.0014 112.516 21.5258 105.228C20.0498 97.9396 27.6297 114.83 22.549 125.434C17.4683 136.038 23.4818 137.252 15.3991 139.721Z" fill="#84BD7D"/>
<path d="M21.3321 103.85C22.8581 108.139 24.8684 118.063 21.4125 125.276C17.0988 134.28 20.2504 136.964 17.4319 139.007C22.383 136.916 17.9789 134.975 22.5488 125.437C27.1817 115.767 21.2882 100.875 21.3321 103.85Z" fill="#C9D2DA"/>
<path d="M22.3107 139.263C22.3107 139.263 23.6763 137.573 24.2972 134.324C24.9169 131.074 24.8915 130.373 26.6298 128.032C28.3685 125.693 29.3856 120.677 28.8124 115.452C28.24 110.228 32.491 122.625 28.2454 129.723C23.9994 136.82 28.1485 138.092 22.3107 139.263Z" fill="#84BD7D"/>
<path d="M28.7677 114.47C29.5662 117.59 30.3471 124.704 27.4598 129.531C23.8551 135.557 25.8984 137.662 23.7881 138.902C27.3998 137.778 24.4286 136.107 28.2484 129.723C32.1193 123.252 28.9269 112.376 28.7677 114.47Z" fill="#C9D2DA"/>
<path d="M12.8418 140.651C12.8418 140.651 11.4762 138.962 10.8561 135.712C10.2361 132.463 10.2607 131.761 8.52274 129.421C6.7848 127.082 5.76735 122.065 6.34012 116.84C6.91174 111.616 2.6623 124.013 6.90866 131.11C11.1539 138.208 7.00522 139.48 12.8418 140.651Z" fill="#84BD7D"/>
<path d="M6.38761 115.858C5.58865 118.977 4.80738 126.092 7.69511 130.919C11.3003 136.945 9.25765 139.051 11.3672 140.291C7.7555 139.166 10.7267 137.495 6.90808 131.111C3.03597 124.64 6.22835 113.764 6.38761 115.858Z" fill="#C9D2DA"/>
<path d="M18.4769 141.794C18.4769 141.794 19.4109 139.281 19.0105 133.976C18.61 128.671 18.7443 125.32 19.8106 122.528C20.8781 119.736 22.2117 113.872 21.145 108.846C21.1446 108.846 11.0721 122.144 18.4769 141.794Z" fill="#365E61"/>
<path d="M21.1442 108.846C21.2615 109.397 21.3477 109.959 21.4111 110.524C19.1597 114.457 14.4909 125.029 18.9619 139.328C18.775 140.988 18.4761 141.794 18.4761 141.794C11.0716 122.144 21.1442 108.846 21.1442 108.846Z" fill="#B2C1CC"/>
<path d="M15.4497 143.619C15.4497 143.619 14.4549 142.223 14.4969 140.68C14.5388 139.137 14.0545 136.22 12.592 134.239C11.1295 132.258 8.69799 123.879 9.2546 117.43C9.81083 110.982 7.29894 110.521 5.96837 109.306C4.63703 108.091 7.82402 118.52 7.58053 122.601C7.16585 129.571 10.4775 134.486 10.9806 137.941C11.778 143.423 15.4497 143.619 15.4497 143.619Z" fill="#66997E"/>
<path d="M7.58132 122.601C7.82482 118.52 4.63783 108.092 5.96917 109.307C6.1592 109.48 6.37346 109.638 6.59965 109.801C7.18473 113.042 8.67454 119.04 8.56145 121.959C8.27564 129.401 11.6977 134.723 12.2681 138.427C12.667 141.016 13.6075 142.519 14.5361 143.391C13.3944 142.951 11.5246 141.669 10.9822 137.942C10.4783 134.487 7.16665 129.572 7.58132 122.601Z" fill="#A5B4C5"/>
<path d="M18.9093 143.757C18.9093 143.757 19.9045 142.362 19.8618 140.819C19.8202 139.276 20.3045 136.36 21.767 134.378C23.2292 132.396 25.661 124.018 25.1044 117.569C24.5486 111.121 27.0601 110.66 28.3906 109.445C29.7224 108.23 26.5358 118.659 26.7793 122.739C27.1932 129.71 23.8808 134.625 23.3788 138.08C22.5814 143.562 18.9093 143.757 18.9093 143.757Z" fill="#66997E"/>
<path d="M26.7783 122.739C26.5348 118.659 29.7214 108.23 28.3897 109.445C28.1996 109.618 27.9858 109.777 27.76 109.94C27.1749 113.18 25.6854 119.177 25.7974 122.097C26.0836 129.539 22.66 134.862 22.0903 138.564C21.6918 141.155 20.7517 142.658 19.8235 143.53C20.9656 143.09 22.8347 141.807 23.377 138.08C23.8798 134.626 27.1922 129.711 26.7783 122.739Z" fill="#A5B4C5"/>
<path d="M17.0176 143.227C17.0176 143.227 15.5316 140.504 15.4693 135.811C15.405 131.117 15.6128 130.146 13.7683 126.417C11.923 122.688 11.7422 115.426 13.8271 108.302C15.9128 101.179 6.93617 117.302 11.1021 128.335C15.2677 139.367 9.17533 140.02 17.0176 143.227Z" fill="#84BD7D"/>
<path d="M14.1364 106.945C12.2546 111.077 9.4138 120.777 12.2473 128.28C15.7851 137.647 12.4196 140.029 15.0542 142.326C10.2982 139.785 14.85 138.259 11.1029 128.335C7.30313 118.275 14.4307 103.986 14.1364 106.945Z" fill="#C9D2DA"/>
<path d="M15.1765 143.448C15.1765 143.448 15.3554 141.809 14.3291 138.735C13.3013 135.661 12.8816 133.657 13.097 131.831C13.3124 130.004 13.2286 126.317 11.8488 123.517C11.8484 123.517 7.86899 133.028 15.1765 143.448Z" fill="#365E61"/>
<path d="M11.848 123.516C11.9996 123.824 12.1338 124.141 12.2562 124.466C11.5095 127.159 10.3217 134.176 15.0966 141.908C15.2331 142.922 15.1762 143.447 15.1762 143.447C7.86861 133.027 11.848 123.516 11.848 123.516Z" fill="#B2C1CC"/>
<path d="M19.9324 142.852C19.9324 142.852 19.6851 141.223 20.5814 138.105C21.4773 134.986 21.8115 132.964 21.5192 131.15C21.2268 129.335 21.1541 125.648 22.4143 122.787C22.4143 122.787 26.793 132.104 19.9324 142.852Z" fill="#365E61"/>
<path d="M22.4143 122.787C22.2758 123.1 22.1543 123.424 22.0469 123.754C22.9059 126.411 24.3907 133.366 19.9474 141.312C19.8539 142.33 19.9324 142.852 19.9324 142.852C26.793 132.104 22.4143 122.787 22.4143 122.787Z" fill="#B2C1CC"/>
<path d="M26.8573 137.295C26.8573 137.295 27.2993 150.761 24.4689 154.139C22.889 156.024 19.5282 156.634 17.4817 156.637C15.3676 156.641 12.2325 155.977 11.0693 154.787C7.00104 150.621 8.46009 137.295 8.46009 137.295H26.8573Z" fill="#4361A9"/>
<path d="M8.46025 137.295H11.0768C11.2591 141.428 11.8253 145.526 13.5825 149.288C14.8958 152.1 16.8087 154.829 19.8296 155.7C20.36 155.853 20.8966 155.95 21.4355 156.004C20.0569 156.459 18.5805 156.636 17.4823 156.638C15.3681 156.642 12.2331 155.977 11.0698 154.787C7.00119 150.622 8.46025 137.295 8.46025 137.295Z" fill="#7FA0D3"/>
<path d="M106.561 157.235L122.848 151.96V131.062L106.561 136.338V157.235Z" fill="#C98F38"/>
<path d="M106.561 157.235L84.8453 151.96V131.062L106.561 136.338V157.235Z" fill="#EEBE5E"/>
<path d="M122.848 131.062L106.561 136.338L84.8454 131.062L101.78 126.654L122.848 131.062Z" fill="#DCA449"/>
<path d="M95.7029 128.232L116.577 133.094L113.121 134.213L91.8812 129.231L95.7029 128.232Z" fill="#B7986E"/>
<path d="M116.577 133.093V141.692H116.254L116.002 142.043L115.667 141.824L115.164 142.263L114.704 142.043L114.535 142.263L114.032 142.043L113.404 142.701L113.181 142.584L113.121 134.213L116.577 133.093Z" fill="#B7986E"/>
<path d="M100.299 135.275L116.586 130V109.102L100.299 114.377V135.275Z" fill="#BA8033"/>
<path d="M100.299 135.275L78.5834 130V109.102L100.299 114.377V135.275Z" fill="#EEBE5E"/>
<path d="M116.586 109.103L100.299 114.378L78.5837 109.103L95.5176 104.694L116.586 109.103Z" fill="#DCA449"/>
<path d="M89.4408 106.272L110.314 111.134L106.859 112.253L85.6195 107.271L89.4408 106.272Z" fill="#B7986E"/>
<path d="M110.314 111.134V119.733H109.992L109.74 120.084L109.405 119.865L108.902 120.303L108.442 120.084L108.273 120.303L107.771 120.084L107.142 120.741L106.919 120.624L106.859 112.253L110.314 111.134Z" fill="#B7986E"/>
<path d="M130.659 162.701L146.946 157.426V136.529L130.659 141.804V162.701Z" fill="#C98F38"/>
<path d="M130.659 162.701L108.943 157.426V136.529L130.659 141.804V162.701Z" fill="#EEBE5E"/>
<path d="M146.946 136.529L130.659 141.804L108.943 136.529L125.877 132.12L146.946 136.529Z" fill="#DCA449"/>
<path d="M119.801 133.699L140.675 138.56L137.219 139.679L115.98 134.697L119.801 133.699Z" fill="#B7986E"/>
<path d="M140.675 138.56V147.159H140.352L140.101 147.51L139.766 147.291L139.262 147.729L138.803 147.51L138.634 147.729L138.131 147.51L137.503 148.168L137.279 148.05L137.219 139.679L140.675 138.56Z" fill="#B7986E"/>
<path d="M124.669 141.394L140.956 136.119V115.222L124.669 120.496V141.394Z" fill="#C98F38"/>
<path d="M124.668 141.394L102.953 136.119V115.222L124.668 120.496V141.394Z" fill="#EEBE5E"/>
<path d="M140.956 115.222L124.669 120.496L102.954 115.222L119.888 110.813L140.956 115.222Z" fill="#DCA449"/>
<path d="M113.811 112.391L134.685 117.253L131.229 118.372L109.99 113.39L113.811 112.391Z" fill="#B7986E"/>
<path d="M134.685 117.253V125.852H134.362L134.11 126.203L133.775 125.983L133.272 126.422L132.812 126.203L132.644 126.422L132.141 126.203L131.512 126.86L131.289 126.743L131.229 118.372L134.685 117.253Z" fill="#B7986E"/>
<path d="M110.076 136.953C111.035 136.803 111.865 135.77 111.708 134.489C111.485 132.654 107.737 129.884 106.389 128.896C100.158 124.332 93.447 122.408 85.9048 123.343C86.5807 123.26 91.6167 129.83 92.3415 130.496C93.9844 132.008 101.824 139.421 103.4 134.992C103.552 136.285 104.766 138.296 106.092 138.85C107.88 139.597 109.395 137.6 108.363 136.091C108.852 136.806 109.488 137.045 110.076 136.953Z" fill="#E3B634"/>
<path d="M72.6881 154.032L74.136 152.595L74.0953 148.683C74.0899 148.157 74.4926 147.726 74.9958 147.721C75.4985 147.715 75.9101 148.136 75.9159 148.662L75.9551 152.43C76.0413 152.479 76.1209 152.543 76.1882 152.626L77.5103 154.241C77.8154 154.614 77.7742 155.175 77.4176 155.494C77.061 155.814 76.5252 155.77 76.2198 155.398L75.8366 154.929L75.8409 155.327C75.8459 155.818 75.4701 156.22 75.0008 156.226C74.5311 156.231 74.1468 155.838 74.1422 155.346L74.1391 155.043L73.8587 155.321C73.5183 155.659 72.9805 155.644 72.6578 155.287C72.3339 154.932 72.3485 154.369 72.6881 154.032Z" fill="#D17200"/>
<path d="M62.7266 158.415L64.1741 156.979L64.1337 153.066C64.1276 152.54 64.5303 152.109 65.0339 152.103C65.5362 152.097 65.9482 152.519 65.9544 153.045L65.9936 156.812C66.0794 156.862 66.1583 156.926 66.226 157.009L67.5481 158.624C67.8531 158.997 67.8119 159.558 67.4557 159.877C67.0991 160.197 66.5633 160.153 66.2579 159.781L65.8744 159.312L65.8786 159.71C65.884 160.201 65.5078 160.604 65.0385 160.609C64.5692 160.614 64.1845 160.22 64.1795 159.729L64.176 159.426L63.896 159.704C63.5556 160.042 63.0178 160.027 62.6951 159.671C62.3716 159.316 62.3858 158.753 62.7266 158.415Z" fill="#D17200"/>
<path d="M51.8576 105.203C54.169 102.625 57.7565 101.416 61.2543 100.716C65.3025 99.906 68.4053 101.283 72.3124 101.733C75.941 102.151 79.5034 103.111 82.9266 104.428C82.9266 104.428 87.8392 98.907 88.9847 99.3888C90.1299 99.8706 95.7699 132.445 84.7826 145.788C80.292 151.241 74.2153 152.931 67.7656 152.836C61.4912 152.848 55.2588 151.076 50.8347 145.565C46.4568 140.11 45.8098 132.933 46.2425 126.096C46.6388 119.835 47.9001 114.167 50.0054 108.314C50.4424 107.099 51.0775 106.073 51.8576 105.203Z" fill="#313C7D"/>
<path d="M61.5612 104.766C61.7847 104.699 62.0063 104.64 62.2263 104.593C66.0461 103.768 70.6652 110.154 74.4523 111.112C78.0701 112.027 79.3379 108.778 82.0018 106.779C86.7044 103.251 92.2863 111.876 92.2867 118.165C92.2875 126.319 85.7796 131.616 79.1533 127.244C77.3046 126.025 76.9715 123.701 74.7142 124.006C72.5935 124.292 70.5602 126.953 68.7518 128.074C65.7768 129.917 63.2588 131.38 59.7286 130.359C54.6714 128.896 51.4833 122.597 51.561 117.067C51.634 111.837 56.9433 106.17 61.5612 104.766Z" fill="#E3B634"/>
<path d="M76.4946 125.203L73.6431 129.323V122.372L76.4946 125.203Z" fill="#B67A3C"/>
<path d="M73.6433 122.372V129.323L70.791 125.203L73.6433 122.372Z" fill="#EF8220"/>
<path d="M84.9946 135.431C87.5558 138.2 87.5993 142.166 85.2281 145.296C80.5221 151.508 72.2175 153.158 65.0334 152.665C58.5655 152.221 55.0758 148.339 58.2797 141.897C60.7124 137.008 64.8483 130.589 70.5992 130.053C75.8853 129.561 81.2745 131.409 84.9946 135.431Z" fill="#C4B6AF"/>
<path d="M63.1406 127.101C68.1516 127.101 72.2138 122.85 72.2138 117.607C72.2138 112.363 68.1516 108.113 63.1406 108.113C58.1296 108.113 54.0674 112.363 54.0674 117.607C54.0674 122.85 58.1296 127.101 63.1406 127.101Z" fill="white"/>
<path d="M64.2876 124.471C67.4573 124.471 70.0269 121.782 70.0269 118.465C70.0269 115.149 67.4573 112.46 64.2876 112.46C61.1179 112.46 58.5483 115.149 58.5483 118.465C58.5483 121.782 61.1179 124.471 64.2876 124.471Z" fill="#383838"/>
<path d="M66.6218 117.492C67.5274 117.492 68.2616 116.724 68.2616 115.776C68.2616 114.828 67.5274 114.06 66.6218 114.06C65.7161 114.06 64.9819 114.828 64.9819 115.776C64.9819 116.724 65.7161 117.492 66.6218 117.492Z" fill="white"/>
<path d="M83.5738 126.592C87.9228 126.592 91.4483 122.903 91.4483 118.352C91.4483 113.801 87.9228 110.112 83.5738 110.112C79.2248 110.112 75.6992 113.801 75.6992 118.352C75.6992 122.903 79.2248 126.592 83.5738 126.592Z" fill="white"/>
<path d="M84.427 124.133C87.1777 124.133 89.4076 121.8 89.4076 118.921C89.4076 116.043 87.1777 113.709 84.427 113.709C81.6762 113.709 79.4463 116.043 79.4463 118.921C79.4463 121.8 81.6762 124.133 84.427 124.133Z" fill="#383838"/>
<path d="M86.2768 117.879C87.0628 117.879 87.7 117.212 87.7 116.39C87.7 115.567 87.0628 114.9 86.2768 114.9C85.4907 114.9 84.8535 115.567 84.8535 116.39C84.8535 117.212 85.4907 117.879 86.2768 117.879Z" fill="white"/>
<path d="M86.4548 137.33C86.4548 137.33 81.0544 129.605 72.4452 130.235C72.4452 130.235 64.4902 130.417 59.8792 137.33C59.8792 137.33 58.5994 146.132 64.2048 141.479C64.2048 141.479 65.6419 149.331 68.977 144.533C68.977 144.533 71.6166 150.785 73.9788 144.097C73.9788 144.097 77.5132 150.64 78.8726 144.242C78.8726 144.242 85.095 149.036 83.4275 142.931C83.4275 142.931 88.8382 145.259 85.5074 139.88C85.5074 139.88 89.3437 141.614 86.4548 137.33Z" fill="#383838"/>
<path d="M85.1857 135.578C85.1857 135.578 80.3204 128.619 72.5643 129.186C72.5643 129.186 65.3983 129.35 61.2442 135.578C61.2442 135.578 60.091 143.507 65.1406 139.315C65.1406 139.315 66.4357 146.389 69.4396 142.066C69.4396 142.066 71.818 147.699 73.946 141.673C73.946 141.673 77.1299 147.568 78.3547 141.804C78.3547 141.804 83.9597 146.123 82.458 140.623C82.458 140.623 87.3321 142.721 84.3317 137.874C84.3317 137.875 87.7876 139.437 85.1857 135.578Z" fill="white"/>
<path d="M55.2153 101.818C55.4803 100.969 55.6977 100.134 55.9516 99.6124C56.7255 98.024 57.8149 96.0404 59.0343 94.7676C60.1441 96.3165 61.4416 97.8735 62.6429 99.3379C63.5076 100.391 65.4283 101.602 65.5848 103.124C61.4969 103.366 57.1475 103.546 53.3535 104.742C54.2925 104.446 54.8106 103.116 55.2153 101.818Z" fill="#313C7D"/>
<path d="M40.3016 107.183C39.7965 102.059 51.824 98.9739 51.824 98.9739L85.446 94.7441C85.446 94.7441 93.8472 94.8617 95.1805 99.9987C96.6545 105.678 84.5648 110.806 67.4331 112.717C50.3022 114.627 40.8667 112.915 40.3016 107.183Z" fill="#E6BA51"/>
<path d="M40.3053 106.463C41.752 111.469 50.9621 112.983 67.1571 111.177C83.0501 109.405 94.6333 104.718 95.0438 99.5363C95.068 99.6139 95.1511 99.8434 95.1722 99.9235C96.6463 105.603 84.5027 110.956 67.3714 112.867C50.2401 114.777 40.7684 112.835 40.2033 107.103C40.1849 106.915 40.2914 106.646 40.3053 106.463Z" fill="#C79840"/>
<path d="M85.8837 95.4276C87.0416 95.4465 88.3387 96.2568 89.4165 96.6754C90.5375 97.1114 91.7376 97.9643 92.1211 99.2319C93.2017 102.805 88.8999 104.077 86.5388 105.213C85.0271 105.94 83.3745 106.436 81.7982 106.987C80.2726 107.521 78.2419 108.069 76.9175 106.805C75.2592 105.221 76.5994 104 78.1277 103.148C79.6021 102.327 81.1354 101.608 82.5717 100.704C83.7908 99.9367 84.125 98.8511 83.9989 97.4088C83.9023 96.3055 84.1981 95.2259 85.5056 95.2304L85.8837 95.4276Z" fill="#E8C95F"/>
<path d="M85.1867 88.7225L87.2597 99.9416C87.2597 99.9416 82.7222 105.366 68.4398 107.392C52.6376 109.633 48.5677 105.217 48.5677 105.217L48.1938 93.4014L85.1867 88.7225Z" fill="#C79840"/>
<path d="M66.1438 86.5612C75.6601 85.1705 84.8768 86.1679 85.1876 88.7223C85.4981 91.2767 78.152 94.9743 68.0541 96.4423C57.9565 97.9103 48.1243 96.9752 48.1947 93.4008C48.2601 90.0551 57.0906 87.8843 66.1438 86.5612Z" fill="#E6BA51"/>
<path d="M86.4944 95.5935C86.4944 95.5935 80.1793 101.395 68.1356 102.493C48.2471 104.307 48.4552 100.412 48.4552 100.412L48.5675 105.217C48.5675 105.217 51.496 109.9 68.4395 107.391C87.1741 104.618 87.2595 99.9412 87.2595 99.9412L86.4944 95.5935Z" fill="#445B60"/>
<path d="M81.903 98.6356C81.903 98.6356 82.6508 99.6073 82.7123 101.083C82.7666 102.382 82.8162 103.723 82.8162 103.723C82.8162 103.723 82.9181 103.862 81.1313 104.47C79.3449 105.079 77.5093 105.566 77.5093 105.566C77.5093 105.566 77.6639 104.568 77.6109 103.162C77.5389 101.277 77.1016 100.594 77.1016 100.594C77.1016 100.594 77.4789 100.45 78.9745 99.8444C81.0806 98.9919 81.903 98.6356 81.903 98.6356Z" fill="#537074"/>
<path d="M67.8615 87.102C68.5392 86.6 70.0191 86.6214 70.8396 86.5542C72.7972 86.3944 74.6332 86.5075 76.5481 86.6556C78.1829 86.782 80.2998 86.8166 81.7869 87.7818C82.9928 88.5647 84.6573 89.7195 81.4068 91.8681C79.9301 92.5669 77.0831 93.5201 75.8064 93.1848C73.1364 92.484 79.4089 90.851 78.4353 89.065C76.4227 87.432 73.2938 87.8032 70.0979 88.0121C69.1516 88.074 66.5363 88.0837 67.8615 87.102Z" fill="#E8C95F"/>
<path d="M77.7908 103.204C76.4717 103.204 75.4024 101.885 75.4024 100.258C75.4024 98.6306 76.4717 97.3116 77.7908 97.3116C79.1099 97.3116 80.1792 98.6306 80.1792 100.258C80.1792 101.885 79.1099 103.204 77.7908 103.204Z" stroke="white" stroke-width="3" stroke-miterlimit="10"/>
<path d="M147.146 89.0484C146.91 89.0484 146.718 88.8387 146.718 88.5799C146.718 88.3212 146.91 88.1115 147.146 88.1115C147.382 88.1115 147.573 88.3212 147.573 88.5799C147.573 88.8387 147.382 89.0484 147.146 89.0484Z" fill="#383838"/>
<path d="M144.805 91.0079C144.569 91.0079 144.377 90.7981 144.377 90.5393C144.377 90.2805 144.569 90.0707 144.805 90.0707C145.041 90.0707 145.232 90.2805 145.232 90.5393C145.232 90.7981 145.041 91.0079 144.805 91.0079Z" fill="#383838"/>
<path opacity="0.5" d="M146.04 90.826C145.722 91.3749 145.303 93.0191 146.742 92.5933C146.491 92.4246 146.327 92.0242 146.101 91.7988C146.421 91.4341 146.446 91.0795 146.352 90.6263C146.288 90.6175 146.223 90.6078 146.159 90.5981C146.092 90.7161 146.076 90.8771 146.01 91.0135" fill="#EDB0A2"/>
<path d="M147.085 93.6928C147.668 94.5229 149.007 94.0136 149.482 93.2225C148.806 93.3932 147.861 94.0362 147.362 93.3469C147.143 93.4436 147.127 93.4923 146.953 93.6312C147.113 93.8417 147.257 93.8896 147.444 93.9983" fill="#DE6444"/>
<path opacity="0.5" d="M154.664 89.655C153.45 91.3452 154.198 94.0919 151.498 94.3036C152.787 97.7322 155.231 91.1278 154.472 89.0513" fill="#EDB0A2"/>
<path d="M116.196 117.161C115.874 118.134 114.451 118.064 113.773 117.455C114.467 117.408 115.552 117.729 115.833 116.916C116.069 116.941 116.098 116.982 116.304 117.06C116.211 117.311 116.088 117.401 115.939 117.563" fill="#DE6444"/>
<path d="M58.1103 132.629C59.0632 133.172 60.0056 133.73 60.915 134.362C63.8331 136.39 67.9604 134.749 70.6354 136.94C73.0516 138.919 72.1095 141.286 69.8464 141.762C71.39 141.437 73.9623 142.513 74.9261 144.107C76.6129 146.897 73.5725 145.865 72.2675 146.543C74.01 149.595 69.2794 148.577 67.5892 148.048C64.7851 147.17 62.624 145.883 60.163 144.316C56.3737 141.903 52.6956 138.338 50.7368 134.396C49.8343 132.58 49.0541 130.111 49.4923 128.288C50.0762 125.856 51.0949 128.078 52.6666 129.274C54.4163 130.604 56.2829 131.588 58.1103 132.629Z" fill="#E3B634"/>
<path d="M139.299 110.221C136.851 109.929 134.357 111.1 132.26 112.285C130.603 113.222 128.85 113.765 127.141 114.629C125.87 115.273 122.157 118.892 122.946 119.194C123.736 119.497 125.44 117.647 126.559 117.579C127.677 117.511 126.386 118.542 126.786 119.212C127.439 120.306 128.419 116.321 129.111 116.099C129.804 115.878 136.885 115.491 138.662 114.681C140.766 113.721 143.627 111.245 140.038 110.356C139.792 110.295 139.546 110.25 139.299 110.221Z" fill="#EDB0A2"/>
<path d="M145.64 112.361C144.165 111.846 142.518 110.139 140.899 110.379C139.743 110.551 137.779 112.993 138.342 114.23C138.352 114.251 139.829 117.482 143.156 118.373C146.494 119.266 147.969 114.554 145.64 112.361Z" fill="#2B41AF"/>
<path d="M151.948 146.077C151.948 146.077 153.711 159.671 153.897 161.128C154.082 162.584 153.525 163.943 154.546 164.526C155.567 165.108 158.629 165.206 158.443 163.847C158.258 162.487 156.588 160.74 156.681 160.254C156.773 159.769 157.423 147.243 157.052 145.786C156.681 144.33 151.948 146.077 151.948 146.077Z" fill="#E59C96"/>
<path d="M144.247 145.495C144.247 145.495 145.453 153.555 146.66 158.991C146.66 158.991 147.123 160.836 146.103 161.42C145.082 162.002 142.205 163.07 143.412 163.556C144.618 164.041 149.907 163.556 150.001 162.682C150.094 161.808 149.63 146.757 148.98 145.689C148.33 144.621 144.247 145.495 144.247 145.495Z" fill="#E59C96"/>
<path d="M141.741 133.357C141.741 133.357 142.113 141.029 143.227 146.951C143.227 146.951 144.897 148.505 149.629 147.243L150 140.543C150 140.543 150.464 146.563 151.114 147.534C151.764 148.505 157.609 148.408 158.352 147.145C159.094 145.883 157.795 134.329 157.238 133.357C156.682 132.386 147.123 129.473 141.741 133.357Z" fill="#DE6444"/>
<path d="M154.418 113.145C154.418 113.145 145.321 111.195 143.331 113.307C141.341 115.42 141.135 133.743 141.277 134.232C141.419 134.72 153.154 138.019 157.701 134.134C158.76 133.23 156.692 116.233 154.418 113.145Z" fill="#2B41AF"/>
<path d="M153.955 121.688C153.955 121.688 154.277 125.397 153.794 126.83C152.962 129.295 151.78 133.32 150.652 134.079C149.525 134.838 147.349 136.354 147.994 136.692C148.638 137.028 149.927 135.596 149.847 136.438C149.766 137.281 147.43 138.967 147.833 139.641C148.236 140.316 151.378 138.546 152.022 137.534C152.667 136.523 152.505 135.595 153.23 134.669C153.956 133.741 157.419 128.599 157.741 126.576C158.063 124.554 157.741 121.351 157.741 121.351L153.955 121.688Z" fill="#EDB0A2"/>
<path d="M154.418 113.145C154.418 113.145 156.82 113.742 157.985 118.454C157.985 118.454 158.373 120.079 158.373 121.866C158.373 121.866 156.044 122.922 153.404 122.272C153.404 122.272 152.239 118.616 152.55 116.098C152.862 113.579 153.412 113.117 154.418 113.145Z" fill="#2B41AF"/>
<path d="M150.102 161.164C150.085 161.012 149.954 160.911 149.809 160.923C148.358 161.039 147.242 160.664 146.792 160.478C146.682 160.433 146.55 160.464 146.485 160.568C145.828 161.62 142.904 162.478 142.593 162.999C142.264 163.549 142.659 164.101 142.659 164.101C143.803 164.772 148.231 164.355 149.557 164.212C149.785 164.188 149.979 164.019 150.027 163.784C150.24 162.719 150.159 161.647 150.102 161.164Z" fill="#253255"/>
<path d="M153.78 161.048C153.79 160.953 153.887 160.907 153.967 160.954C154.193 161.088 154.64 161.286 155.237 161.203C156.116 161.082 156.717 160.623 156.809 160.695C156.901 160.768 158.936 163.163 158.982 163.816C159.028 164.469 158.89 164.954 158.335 165.075C157.779 165.195 154.52 165.365 153.965 164.687C153.496 164.115 153.704 161.765 153.78 161.048Z" fill="#253255"/>
<path d="M146.92 108.636C146.92 108.636 147.648 109.78 147.576 112.602C147.576 112.602 144.806 113.67 146.191 114.738C147.576 115.805 152.095 114.509 152.678 113.594C153.261 112.679 152.386 112.373 152.24 110.924C152.094 109.475 152.605 107.569 152.605 107.569L146.92 108.636Z" fill="#EDB0A2"/>
<path opacity="0.5" d="M147.472 112.644C148.976 112.524 150.749 111.769 152.247 110.968C152.245 110.953 152.242 110.939 152.241 110.924C152.095 109.475 152.605 107.568 152.605 107.568L146.92 108.636C146.92 108.636 147.649 109.78 147.576 112.602C147.576 112.602 147.537 112.617 147.472 112.644Z" fill="#EDB0A2"/>
<path d="M146.752 100.246C146.752 100.246 142.233 105.006 144.188 109.1C145.776 112.427 151.291 111.331 153.46 109.072C155.629 106.814 156.365 103.434 154.819 101.335C153.272 99.2357 149.25 97.7599 146.752 100.246Z" fill="#EDB0A2"/>
<path d="M144.748 103.908C144.748 103.908 145.082 101.753 146.086 100.395C146.175 100.274 146.152 100.151 146.095 100.047C145.889 99.6752 145.706 99.2918 145.62 98.8715C145.44 97.9913 145.339 96.7104 146.054 96.0823C147.206 95.0709 146.527 96.8113 147.881 97.0757C149.235 97.3396 152.776 97.1 154.429 98.1232C156.082 99.1465 155.646 100.907 156.101 100.766C156.555 100.625 156.98 100.301 156.98 100.301L156.671 101.354C156.671 101.354 157.84 101.962 157.628 102.124C157.416 102.286 156.216 101.87 156.216 101.87C156.216 101.87 158.149 103.157 157.316 105.798C156.482 108.439 152.437 110.389 152.506 110.065C152.573 109.741 152.129 108.82 152.846 108.072C153.562 107.323 154.24 105.958 153.505 105.461C152.77 104.964 151.714 106.583 151.541 106.613C151.366 106.644 151.532 105.054 151.803 104.508C152.075 103.962 151.204 103.739 151.341 102.342C151.477 100.945 152.155 100.703 152.155 100.703C152.155 100.703 149.534 100.721 148.267 100.629C146.999 100.537 146.883 100.379 146.883 100.379C146.883 100.379 145.328 102.683 144.748 103.908Z" fill="#190032"/>
<path d="M132.441 144.262L116.547 139.114V118.722L132.441 123.869V144.262Z" fill="#7F5011"/>
<path d="M132.586 144.262L153.777 139.114V118.722L132.586 123.869V144.262Z" fill="#EEBE5E"/>
<path d="M116.693 118.722L132.587 123.87L153.778 118.722L137.252 114.42L116.693 118.722Z" fill="#DCA449"/>
<path d="M143.182 115.959L122.812 120.704L126.184 121.796L146.911 116.934L143.182 115.959Z" fill="#B7986E"/>
<path d="M122.812 120.705V129.096H123.127L123.372 129.438L123.699 129.224L124.191 129.652L124.639 129.438L124.804 129.652L125.295 129.438L125.908 130.08L126.125 129.965L126.184 121.796L122.812 120.705Z" fill="#B7986E"/>
<path d="M145.803 105.015C146.033 105.015 146.22 104.811 146.22 104.559C146.22 104.306 146.033 104.102 145.803 104.102C145.572 104.102 145.386 104.306 145.386 104.559C145.386 104.811 145.572 105.015 145.803 105.015Z" fill="#383838"/>
<path d="M149.34 105.53C149.57 105.53 149.757 105.325 149.757 105.073C149.757 104.821 149.57 104.616 149.34 104.616C149.11 104.616 148.923 104.821 148.923 105.073C148.923 105.325 149.11 105.53 149.34 105.53Z" fill="#383838"/>
<path opacity="0.5" d="M147.517 105.551C146.967 105.798 145.742 106.854 147.117 107.371C147.009 107.088 147.095 106.672 147.038 106.359C147.49 106.26 147.703 105.993 147.873 105.578C147.827 105.532 147.781 105.487 147.736 105.44C147.619 105.494 147.519 105.613 147.392 105.681" fill="#EDB0A2"/>
<path d="M149.784 108.093C150.26 108.093 150.646 107.715 150.646 107.249C150.646 106.783 150.26 106.406 149.784 106.406C149.309 106.406 148.923 106.783 148.923 107.249C148.923 107.715 149.309 108.093 149.784 108.093Z" fill="#DE6444"/>
<path d="M144.669 107.249C145.144 107.249 145.53 106.871 145.53 106.405C145.53 105.939 145.144 105.56 144.669 105.56C144.193 105.56 143.807 105.939 143.807 106.405C143.807 106.871 144.193 107.249 144.669 107.249Z" fill="#DE6444"/>
<path d="M146.016 108.824C146.329 109.774 147.719 109.706 148.38 109.112C147.703 109.066 146.644 109.38 146.37 108.585C146.139 108.609 146.111 108.65 145.91 108.726C146.001 108.971 146.121 109.059 146.266 109.217" fill="#DE6444"/>
</svg>
